<?xml version="1.0" encoding="UTF-8" standalone="no"?>
<!DOCTYPE svg PUBLIC "-//W3C//DTD SVG 1.1//EN"
 "http://www.w3.org/Graphics/SVG/1.1/DTD/svg11.dtd">
<!-- Generated by graphviz version 2.44.0 (20200518.1210)
 -->
<!-- Title: RH Pages: 1 -->
<svg width="458pt" height="357pt"
 viewBox="0.00 0.00 458.19 356.80" xmlns="http://www.w3.org/2000/svg" xmlns:xlink="http://www.w3.org/1999/xlink">
<g id="graph0" class="graph" transform="scale(1 1) rotate(0) translate(4 352.8)">
<title>RH</title>
<polygon fill="#fefefe" stroke="transparent" points="-4,4 -4,-352.8 454.19,-352.8 454.19,4 -4,4"/>
<text text-anchor="middle" x="225.09" y="-8.2" font-family="Times,serif" font-size="14.00">Salesforce DX Project Chart</text>
<!-- exp&#45;mgr -->
<g id="node1" class="node">
<title>exp&#45;mgr</title>
<polygon fill="#99ccff" stroke="#99ccff" points="215.88,-348.8 107.88,-348.8 107.88,-312.8 215.88,-312.8 215.88,-348.8"/>
<text text-anchor="middle" x="161.88" y="-327.5" font-family="Arial" font-size="11.00">exp&#45;mgr</text>
</g>
<!-- Expense Manager &#45; Util &#45; 4.7.0.LATEST -->
<g id="node2" class="node">
<title>Expense Manager &#45; Util &#45; 4.7.0.LATEST</title>
<polygon fill="#99ccff" stroke="#99ccff" points="209.64,-60.8 0.12,-60.8 0.12,-24.8 209.64,-24.8 209.64,-60.8"/>
<text text-anchor="middle" x="104.88" y="-39.5" font-family="Arial" font-size="11.00">Expense Manager &#45; Util &#45; 4.7.0.LATEST</text>
</g>
<!-- exp&#45;mgr&#45;&gt;Expense Manager &#45; Util &#45; 4.7.0.LATEST -->
<g id="edge1" class="edge">
<title>exp&#45;mgr&#45;&gt;Expense Manager &#45; Util &#45; 4.7.0.LATEST</title>
<path fill="none" stroke="black" stroke-width="3" d="M155.61,-312.66C147.12,-288.81 132.1,-244.1 123.88,-204.8 114.14,-158.27 108.98,-103.05 106.6,-70.87"/>
<polygon fill="black" stroke="black" stroke-width="3" points="110.09,-70.61 105.9,-60.88 103.11,-71.1 110.09,-70.61"/>
</g>
<!-- Expense Manager &#45; 3.2.0.NEXT -->
<g id="node3" class="node">
<title>Expense Manager &#45; 3.2.0.NEXT</title>
<polygon fill="#99ccff" stroke="#99ccff" points="304.75,-204.8 133.01,-204.8 133.01,-168.8 304.75,-168.8 304.75,-204.8"/>
<text text-anchor="middle" x="218.88" y="-183.5" font-family="Arial" font-size="11.00">Expense Manager &#45; 3.2.0.NEXT</text>
</g>
<!-- exp&#45;mgr&#45;&gt;Expense Manager &#45; 3.2.0.NEXT -->
<g id="edge2" class="edge">
<title>exp&#45;mgr&#45;&gt;Expense Manager &#45; 3.2.0.NEXT</title>
<path fill="none" stroke="black" stroke-width="3" d="M168.76,-312.67C178.56,-288.26 196.63,-243.23 208.19,-214.44"/>
<polygon fill="black" stroke="black" stroke-width="3" points="211.5,-215.57 211.98,-204.99 205.01,-212.97 211.5,-215.57"/>
</g>
<!-- Expense Manager &#45; 3.2.0.NEXT&#45;&gt;Expense Manager &#45; Util &#45; 4.7.0.LATEST -->
<g id="edge3" class="edge">
<title>Expense Manager &#45; 3.2.0.NEXT&#45;&gt;Expense Manager &#45; Util &#45; 4.7.0.LATEST</title>
<path fill="none" stroke="black" stroke-width="3" d="M205.13,-168.67C185.19,-143.83 148.11,-97.65 125.06,-68.94"/>
<polygon fill="black" stroke="black" stroke-width="3" points="127.67,-66.6 118.68,-60.99 122.21,-70.98 127.67,-66.6"/>
</g>
<!-- External Apex Library &#45; 1.0.0.4 &#45; undefined -->
<g id="node4" class="node">
<title>External Apex Library &#45; 1.0.0.4 &#45; undefined</title>
<polygon fill="#99ccff" stroke="#99ccff" points="449.99,-60.8 227.77,-60.8 227.77,-24.8 449.99,-24.8 449.99,-60.8"/>
<text text-anchor="middle" x="338.88" y="-39.5" font-family="Arial" font-size="11.00">External Apex Library &#45; 1.0.0.4 &#45; undefined</text>
</g>
<!-- Expense Manager &#45; 3.2.0.NEXT&#45;&gt;External Apex Library &#45; 1.0.0.4 &#45; undefined -->
<g id="edge4" class="edge">
<title>Expense Manager &#45; 3.2.0.NEXT&#45;&gt;External Apex Library &#45; 1.0.0.4 &#45; undefined</title>
<path fill="none" stroke="black" stroke-width="3" d="M233.35,-168.67C254.35,-143.83 293.38,-97.65 317.63,-68.94"/>
<polygon fill="black" stroke="black" stroke-width="3" points="320.57,-70.89 324.35,-60.99 315.23,-66.37 320.57,-70.89"/>
</g>
</g>
</svg>
