<?xml version="1.0" encoding="UTF-8" standalone="no"?>
<!DOCTYPE svg PUBLIC "-//W3C//DTD SVG 1.1//EN"
 "http://www.w3.org/Graphics/SVG/1.1/DTD/svg11.dtd">
<!-- Generated by graphviz version 2.44.0 (20200518.1210)
 -->
<!-- Title: ETMH Pages: 1 -->
<svg width="650pt" height="524pt"
 viewBox="0.00 0.00 649.50 523.80" xmlns="http://www.w3.org/2000/svg" xmlns:xlink="http://www.w3.org/1999/xlink">
<g id="graph0" class="graph" transform="scale(1 1) rotate(0) translate(4 519.8)">
<title>ETMH</title>
<polygon fill="#fefefe" stroke="transparent" points="-4,4 -4,-519.8 645.5,-519.8 645.5,4 -4,4"/>
<text text-anchor="middle" x="320.75" y="-8.2" font-family="Times,serif" font-size="14.00">Salesforce ETMH (Kalam) </text>
<!-- Current Fiscal Year -->
<g id="node1" class="node">
<title>Current Fiscal Year</title>
<polygon fill="#99ccff" stroke="#99ccff" points="512.72,-515.8 402.28,-515.8 402.28,-479.8 512.72,-479.8 512.72,-515.8"/>
<text text-anchor="middle" x="457.5" y="-494.5" font-family="Arial" font-size="11.00">Current Fiscal Year</text>
</g>
<!-- Northern Mass -->
<g id="node2" class="node">
<title>Northern Mass</title>
<polygon fill="#99ccff" stroke="#99ccff" points="448.5,-371.8 340.5,-371.8 340.5,-335.8 448.5,-335.8 448.5,-371.8"/>
<text text-anchor="middle" x="394.5" y="-350.5" font-family="Arial" font-size="11.00">Northern Mass</text>
</g>
<!-- Current Fiscal Year&#45;&gt;Northern Mass -->
<g id="edge1" class="edge">
<title>Current Fiscal Year&#45;&gt;Northern Mass</title>
<path fill="none" stroke="black" stroke-width="3" d="M449.9,-479.67C439.07,-455.26 419.09,-410.23 406.32,-381.44"/>
<polygon fill="black" stroke="black" stroke-width="3" points="409.38,-379.71 402.13,-371.99 402.98,-382.55 409.38,-379.71"/>
</g>
<!-- Southern Mass -->
<g id="node8" class="node">
<title>Southern Mass</title>
<polygon fill="#99ccff" stroke="#99ccff" points="607.5,-371.8 499.5,-371.8 499.5,-335.8 607.5,-335.8 607.5,-371.8"/>
<text text-anchor="middle" x="553.5" y="-350.5" font-family="Arial" font-size="11.00">Southern Mass</text>
</g>
<!-- Current Fiscal Year&#45;&gt;Southern Mass -->
<g id="edge7" class="edge">
<title>Current Fiscal Year&#45;&gt;Southern Mass</title>
<path fill="none" stroke="black" stroke-width="3" d="M469.08,-479.67C485.8,-454.94 516.83,-409.04 536.25,-380.31"/>
<polygon fill="black" stroke="black" stroke-width="3" points="539.18,-382.23 541.88,-371.99 533.38,-378.31 539.18,-382.23"/>
</g>
<!-- Boston -->
<g id="node3" class="node">
<title>Boston</title>
<polygon fill="#99ccff" stroke="#99ccff" points="381.5,-227.8 273.5,-227.8 273.5,-191.8 381.5,-191.8 381.5,-227.8"/>
<text text-anchor="middle" x="327.5" y="-206.5" font-family="Arial" font-size="11.00">Boston</text>
</g>
<!-- Northern Mass&#45;&gt;Boston -->
<g id="edge2" class="edge">
<title>Northern Mass&#45;&gt;Boston</title>
<path fill="none" stroke="black" stroke-width="3" d="M386.42,-335.67C374.85,-311.15 353.47,-265.83 339.89,-237.06"/>
<polygon fill="black" stroke="black" stroke-width="3" points="343.04,-235.54 335.61,-227.99 336.71,-238.53 343.04,-235.54"/>
</g>
<!-- Items0 -->
<g id="node4" class="node">
<title>Items0</title>
<polygon fill="#99ccff" stroke="transparent" points="115,-83.8 0,-83.8 0,-24.8 115,-24.8 115,-83.8"/>
<polygon fill="#ffeeff" stroke="transparent" points="0,-24.8 0,-83.8 115,-83.8 115,-24.8 0,-24.8"/>
<polygon fill="lightblue" stroke="transparent" points="1.5,-63.3 1.5,-82.3 114.5,-82.3 114.5,-63.3 1.5,-63.3"/>
<polygon fill="none" stroke="#99ccff" points="1.5,-63.3 1.5,-82.3 114.5,-82.3 114.5,-63.3 1.5,-63.3"/>
<text text-anchor="start" x="38.13" y="-70.4" font-family="Arial" font-weight="bold" font-size="11.00">Account</text>
<polygon fill="lightyellow" stroke="transparent" points="1.5,-44.3 1.5,-63.3 114.5,-63.3 114.5,-44.3 1.5,-44.3"/>
<polygon fill="none" stroke="#99ccff" points="1.5,-44.3 1.5,-63.3 114.5,-63.3 114.5,-44.3 1.5,-44.3"/>
<text text-anchor="start" x="16.44" y="-51.4" font-family="Arial" font-weight="bold" font-size="11.00">Territory2Manual</text>
<polygon fill="lightgreen" stroke="transparent" points="1.5,-25.3 1.5,-44.3 114.5,-44.3 114.5,-25.3 1.5,-25.3"/>
<polygon fill="none" stroke="#99ccff" points="1.5,-25.3 1.5,-44.3 114.5,-44.3 114.5,-25.3 1.5,-25.3"/>
<text text-anchor="start" x="4.2" y="-32.4" font-family="Arial" font-weight="bold" font-size="11.00">0013h00000Fffx3AAB</text>
<polygon fill="none" stroke="#99ccff" points="0,-24.8 0,-83.8 115,-83.8 115,-24.8 0,-24.8"/>
</g>
<!-- Boston&#45;&gt;Items0 -->
<g id="edge3" class="edge">
<title>Boston&#45;&gt;Items0</title>
<path fill="none" stroke="black" stroke-width="3" d="M297.57,-191.79C254.04,-167.04 172.37,-120.61 116.48,-88.83"/>
<polygon fill="black" stroke="black" stroke-width="3" points="118.17,-85.77 107.75,-83.87 114.71,-91.85 118.17,-85.77"/>
</g>
<!-- Items1 -->
<g id="node5" class="node">
<title>Items1</title>
<polygon fill="#99ccff" stroke="transparent" points="248,-83.8 133,-83.8 133,-24.8 248,-24.8 248,-83.8"/>
<polygon fill="#ffeeff" stroke="transparent" points="133,-24.8 133,-83.8 248,-83.8 248,-24.8 133,-24.8"/>
<polygon fill="lightblue" stroke="transparent" points="134.5,-63.3 134.5,-82.3 247.5,-82.3 247.5,-63.3 134.5,-63.3"/>
<polygon fill="none" stroke="#99ccff" points="134.5,-63.3 134.5,-82.3 247.5,-82.3 247.5,-63.3 134.5,-63.3"/>
<text text-anchor="start" x="171.13" y="-70.4" font-family="Arial" font-weight="bold" font-size="11.00">Account</text>
<polygon fill="lightyellow" stroke="transparent" points="134.5,-44.3 134.5,-63.3 247.5,-63.3 247.5,-44.3 134.5,-44.3"/>
<polygon fill="none" stroke="#99ccff" points="134.5,-44.3 134.5,-63.3 247.5,-63.3 247.5,-44.3 134.5,-44.3"/>
<text text-anchor="start" x="149.44" y="-51.4" font-family="Arial" font-weight="bold" font-size="11.00">Territory2Manual</text>
<polygon fill="lightgreen" stroke="transparent" points="134.5,-25.3 134.5,-44.3 247.5,-44.3 247.5,-25.3 134.5,-25.3"/>
<polygon fill="none" stroke="#99ccff" points="134.5,-25.3 134.5,-44.3 247.5,-44.3 247.5,-25.3 134.5,-25.3"/>
<text text-anchor="start" x="137.2" y="-32.4" font-family="Arial" font-weight="bold" font-size="11.00">0013h00000Fffz7AAB</text>
<polygon fill="none" stroke="#99ccff" points="133,-24.8 133,-83.8 248,-83.8 248,-24.8 133,-24.8"/>
</g>
<!-- Boston&#45;&gt;Items1 -->
<g id="edge4" class="edge">
<title>Boston&#45;&gt;Items1</title>
<path fill="none" stroke="black" stroke-width="3" d="M312.32,-191.79C290.86,-167.75 251.16,-123.26 222.91,-91.62"/>
<polygon fill="black" stroke="black" stroke-width="3" points="225.27,-89 216,-83.87 220.04,-93.66 225.27,-89"/>
</g>
<!-- Items2 -->
<g id="node6" class="node">
<title>Items2</title>
<polygon fill="#99ccff" stroke="transparent" points="389,-83.8 266,-83.8 266,-24.8 389,-24.8 389,-83.8"/>
<polygon fill="#ffeeff" stroke="transparent" points="266,-24.8 266,-83.8 389,-83.8 389,-24.8 266,-24.8"/>
<polygon fill="lightblue" stroke="transparent" points="267.5,-63.3 267.5,-82.3 388.5,-82.3 388.5,-63.3 267.5,-63.3"/>
<polygon fill="none" stroke="#99ccff" points="267.5,-63.3 267.5,-82.3 388.5,-82.3 388.5,-63.3 267.5,-63.3"/>
<text text-anchor="start" x="308.13" y="-70.4" font-family="Arial" font-weight="bold" font-size="11.00">Account</text>
<polygon fill="lightyellow" stroke="transparent" points="267.5,-44.3 267.5,-63.3 388.5,-63.3 388.5,-44.3 267.5,-44.3"/>
<polygon fill="none" stroke="#99ccff" points="267.5,-44.3 267.5,-63.3 388.5,-63.3 388.5,-44.3 267.5,-44.3"/>
<text text-anchor="start" x="286.44" y="-51.4" font-family="Arial" font-weight="bold" font-size="11.00">Territory2Manual</text>
<polygon fill="lightgreen" stroke="transparent" points="267.5,-25.3 267.5,-44.3 388.5,-44.3 388.5,-25.3 267.5,-25.3"/>
<polygon fill="none" stroke="#99ccff" points="267.5,-25.3 267.5,-44.3 388.5,-44.3 388.5,-25.3 267.5,-25.3"/>
<text text-anchor="start" x="270.23" y="-32.4" font-family="Arial" font-weight="bold" font-size="11.00">0013h00000FfgCMAAZ</text>
<polygon fill="none" stroke="#99ccff" points="266,-24.8 266,-83.8 389,-83.8 389,-24.8 266,-24.8"/>
</g>
<!-- Boston&#45;&gt;Items2 -->
<g id="edge5" class="edge">
<title>Boston&#45;&gt;Items2</title>
<path fill="none" stroke="black" stroke-width="3" d="M327.5,-191.79C327.5,-168.36 327.5,-125.51 327.5,-94.05"/>
<polygon fill="black" stroke="black" stroke-width="3" points="331,-93.87 327.5,-83.87 324,-93.87 331,-93.87"/>
</g>
<!-- South Boston -->
<g id="node7" class="node">
<title>South Boston</title>
<polygon fill="#99ccff" stroke="#99ccff" points="515.5,-72.3 407.5,-72.3 407.5,-36.3 515.5,-36.3 515.5,-72.3"/>
<text text-anchor="middle" x="461.5" y="-51" font-family="Arial" font-size="11.00">South Boston</text>
</g>
<!-- Boston&#45;&gt;South Boston -->
<g id="edge6" class="edge">
<title>Boston&#45;&gt;South Boston</title>
<path fill="none" stroke="black" stroke-width="3" d="M342.35,-191.79C366,-164.7 412.32,-111.64 439.72,-80.25"/>
<polygon fill="black" stroke="black" stroke-width="3" points="442.64,-82.23 446.58,-72.39 437.37,-77.62 442.64,-82.23"/>
</g>
<!-- Plymouth -->
<g id="node9" class="node">
<title>Plymouth</title>
<polygon fill="#99ccff" stroke="#99ccff" points="624.5,-227.8 516.5,-227.8 516.5,-191.8 624.5,-191.8 624.5,-227.8"/>
<text text-anchor="middle" x="570.5" y="-206.5" font-family="Arial" font-size="11.00">Plymouth</text>
</g>
<!-- Southern Mass&#45;&gt;Plymouth -->
<g id="edge8" class="edge">
<title>Southern Mass&#45;&gt;Plymouth</title>
<path fill="none" stroke="black" stroke-width="3" d="M555.55,-335.67C558.45,-311.47 563.77,-267.01 567.22,-238.19"/>
<polygon fill="black" stroke="black" stroke-width="3" points="570.73,-238.33 568.44,-227.99 563.78,-237.5 570.73,-238.33"/>
</g>
<!-- North Plymouth -->
<g id="node10" class="node">
<title>North Plymouth</title>
<polygon fill="#99ccff" stroke="#99ccff" points="641.5,-72.3 533.5,-72.3 533.5,-36.3 641.5,-36.3 641.5,-72.3"/>
<text text-anchor="middle" x="587.5" y="-51" font-family="Arial" font-size="11.00">North Plymouth</text>
</g>
<!-- Plymouth&#45;&gt;North Plymouth -->
<g id="edge9" class="edge">
<title>Plymouth&#45;&gt;North Plymouth</title>
<path fill="none" stroke="black" stroke-width="3" d="M572.38,-191.79C575.31,-165.39 580.96,-114.33 584.47,-82.7"/>
<polygon fill="black" stroke="black" stroke-width="3" points="587.99,-82.71 585.61,-72.39 581.03,-81.94 587.99,-82.71"/>
</g>
</g>
</svg>
