<svg version="1.1" xmlns="http://www.w3.org/2000/svg" viewBox="0 0 1003.9874267578125 640.062255859375" width="2007.974853515625" height="1280.12451171875" filter="invert(93%) hue-rotate(180deg)">
  <!-- svg-source:excalidraw -->
  
  <defs>
    <style class="style-fonts">
      @font-face {
        font-family: "Virgil";
        src: url("https://excalidraw.com/Virgil.woff2");
      }
      @font-face {
        font-family: "Cascadia";
        src: url("https://excalidraw.com/Cascadia.woff2");
      }
    </style>
    
  </defs>
  <rect x="0" y="0" width="1003.9874267578125" height="640.062255859375" fill="#ffffff"></rect><g stroke-linecap="round" transform="translate(48.229827880859375 41.652099609375) rotate(0 173.98265075683594 62.269500732421875)"><path d="M31.13 0 M31.13 0 C92.63 -0.07, 155.36 0.18, 316.83 0 M31.13 0 C130.32 -1.35, 229.26 -1.72, 316.83 0 M316.83 0 C338.12 0.6, 348 12.28, 347.97 31.13 M316.83 0 C339.1 -2.07, 348.95 9.28, 347.97 31.13 M347.97 31.13 C348.82 48.37, 347.62 62.12, 347.97 93.4 M347.97 31.13 C347.08 46.06, 347.34 59, 347.97 93.4 M347.97 93.4 C346.16 112.56, 337.54 123.63, 316.83 124.54 M347.97 93.4 C349.28 112.91, 336.9 122.88, 316.83 124.54 M316.83 124.54 C223.99 123.2, 134.8 125.65, 31.13 124.54 M316.83 124.54 C252.6 126.55, 189.23 125.32, 31.13 124.54 M31.13 124.54 C12.22 124.37, -0.1 114.32, 0 93.4 M31.13 124.54 C8.11 125.56, 0.33 115.95, 0 93.4 M0 93.4 C-1.31 71.8, 0.71 51.47, 0 31.13 M0 93.4 C0.03 79.79, -1.13 65.03, 0 31.13 M0 31.13 C1.42 8.88, 10.96 0.02, 31.13 0 M0 31.13 C-0.18 9.11, 11.55 -0.92, 31.13 0" stroke="#e03131" stroke-width="1" fill="none"></path></g><g transform="translate(73.36773681640625 63.45562744140625) rotate(0 51.13995361328125 37.5)"><text x="0" y="0" font-family="Virgil, Segoe UI Emoji" font-size="20px" fill="#1e1e1e" text-anchor="start" style="white-space: pre;" direction="ltr" dominant-baseline="text-before-edge">username1</text><text x="0" y="25" font-family="Virgil, Segoe UI Emoji" font-size="20px" fill="#1e1e1e" text-anchor="start" style="white-space: pre;" direction="ltr" dominant-baseline="text-before-edge">username2</text><text x="0" y="50" font-family="Virgil, Segoe UI Emoji" font-size="20px" fill="#1e1e1e" text-anchor="start" style="white-space: pre;" direction="ltr" dominant-baseline="text-before-edge">....</text></g><g stroke-linecap="round" transform="translate(27.835693359375 256.288818359375) rotate(0 189.64764404296875 59.09857177734375)"><path d="M29.55 0 M29.55 0 C108.84 -0.75, 189.39 -1.57, 349.75 0 M29.55 0 C134.48 -0.66, 239.47 -0.32, 349.75 0 M349.75 0 C371.27 -1.71, 379.19 10.88, 379.3 29.55 M349.75 0 C370.95 -0.61, 380.27 7.71, 379.3 29.55 M379.3 29.55 C379.32 40.69, 378.52 54.84, 379.3 88.65 M379.3 29.55 C380.7 48.75, 379.58 67.2, 379.3 88.65 M379.3 88.65 C381.29 107.28, 368.01 118.82, 349.75 118.2 M379.3 88.65 C379.99 108.95, 367.28 119.56, 349.75 118.2 M349.75 118.2 C267.35 115.27, 186.32 115.64, 29.55 118.2 M349.75 118.2 C247 116.26, 143.96 116.11, 29.55 118.2 M29.55 118.2 C10.02 118.45, -1.09 108.75, 0 88.65 M29.55 118.2 C11.07 120.34, 1.77 106.62, 0 88.65 M0 88.65 C-0.57 68.63, 0.06 53.26, 0 29.55 M0 88.65 C-0.16 65.41, 0.84 41.96, 0 29.55 M0 29.55 C1.34 11.38, 8.61 0.25, 29.55 0 M0 29.55 C2.23 10.33, 7.97 -1.72, 29.55 0" stroke="#2f9e44" stroke-width="1" fill="none"></path></g><g transform="translate(128.7434310913086 302.88739013671875) rotate(0 88.73990631103516 12.5)"><text x="88.73990631103516" y="0" font-family="Virgil, Segoe UI Emoji" font-size="20px" fill="#2f9e44" text-anchor="middle" style="white-space: pre;" direction="ltr" dominant-baseline="text-before-edge">form_login_urls.sh</text></g><g stroke-linecap="round"><g transform="translate(224.11285400390625 164.8475341796875) rotate(0 1.2029975933891706 45.072348911780864)"><path d="M0.75 -0.83 C1 14.05, 0.28 74.71, 0.62 89.76 M-0.31 1.35 C0.36 16.33, 2.25 76.15, 2.72 90.97" stroke="#1e1e1e" stroke-width="1" fill="none"></path></g><g transform="translate(224.11285400390625 164.8475341796875) rotate(0 1.2029975933891706 45.072348911780864)"><path d="M-9.82 61.18 C-6.81 71.03, -4.75 76.86, 0.73 90.33 M-8.22 62.86 C-5.01 72.18, -1.73 81.56, 3.64 91.51" stroke="#1e1e1e" stroke-width="1" fill="none"></path></g><g transform="translate(224.11285400390625 164.8475341796875) rotate(0 1.2029975933891706 45.072348911780864)"><path d="M10.69 60.53 C9.04 70.65, 6.43 76.64, 0.73 90.33 M12.29 62.21 C9.02 71.53, 5.83 81.12, 3.64 91.51" stroke="#1e1e1e" stroke-width="1" fill="none"></path></g></g><mask></mask><g stroke-linecap="round"><g transform="translate(522.3565673828125 132.51177978515625) rotate(0 -66.08861938056538 62.760596105083806)"><path d="M-0.55 -0.53 C-22.73 20.29, -111.42 105.12, -133.53 126.05 M1.35 1.8 C-20.42 22.76, -109.35 103.39, -131.37 124.09" stroke="#1e1e1e" stroke-width="1" fill="none"></path></g><g transform="translate(522.3565673828125 132.51177978515625) rotate(0 -66.08861938056538 62.760596105083806)"><path d="M-118.48 95.7 C-120.45 103.07, -125.74 111.49, -131.44 123.96 M-117.7 96.48 C-121.59 104.71, -126.66 112.91, -132.12 123.41" stroke="#1e1e1e" stroke-width="1" fill="none"></path></g><g transform="translate(522.3565673828125 132.51177978515625) rotate(0 -66.08861938056538 62.760596105083806)"><path d="M-104.57 110.79 C-110.32 114.15, -119.24 118.62, -131.44 123.96 M-103.79 111.57 C-111.74 115.31, -120.99 118.99, -132.12 123.41" stroke="#1e1e1e" stroke-width="1" fill="none"></path></g></g><mask></mask><g transform="translate(29.02215576171875 10) rotate(0 44.729949951171875 12.5)"><text x="0" y="0" font-family="Virgil, Segoe UI Emoji" font-size="20px" fill="#1e1e1e" text-anchor="start" style="white-space: pre;" direction="ltr" dominant-baseline="text-before-edge">users.csv</text></g><g transform="translate(528.3677368164062 123.45562744140625) rotate(0 68.88993072509766 12.5)"><text x="0" y="0" font-family="Virgil, Segoe UI Emoji" font-size="20px" fill="#1e1e1e" text-anchor="start" style="white-space: pre;" direction="ltr" dominant-baseline="text-before-edge">key_file_path</text></g><g stroke-linecap="round"><g transform="translate(639.8998413085938 186.36453247070312) rotate(0 -113.30152674056586 64.15690611328932)"><path d="M0.46 0.21 C-37.32 21.59, -189.34 106.31, -227.06 127.54 M-0.76 -0.73 C-38.15 20.92, -187.31 107.43, -224.95 129.05" stroke="#1e1e1e" stroke-width="1" fill="none"></path></g><g transform="translate(639.8998413085938 186.36453247070312) rotate(0 -113.30152674056586 64.15690611328932)"><path d="M-205.32 104.16 C-211.08 112.4, -216.1 120.2, -223.08 130.46 M-206.53 106.77 C-210.32 111.3, -214.52 116.49, -225.02 128.8" stroke="#1e1e1e" stroke-width="1" fill="none"></path></g><g transform="translate(639.8998413085938 186.36453247070312) rotate(0 -113.30152674056586 64.15690611328932)"><path d="M-195.06 121.93 C-203.45 125.46, -211.21 128.5, -223.08 130.46 M-196.27 124.54 C-202.51 124.84, -209.15 125.79, -225.02 128.8" stroke="#1e1e1e" stroke-width="1" fill="none"></path></g></g><mask></mask><g transform="translate(666.3677368164062 171.45562744140625) rotate(0 163.80984497070312 12.5)"><text x="0" y="0" font-family="Virgil, Segoe UI Emoji" font-size="20px" fill="#1e1e1e" text-anchor="start" style="white-space: pre;" direction="ltr" dominant-baseline="text-before-edge">consumerKey of the connectedApp</text></g><g stroke-linecap="round"><g transform="translate(213.62896728515625 375.87139892578125) rotate(0 1.4079772803931974 71.73729307316245)"><path d="M-0.46 -0.91 C0.18 23.23, 2.56 120.11, 3.27 144.38 M1.5 1.23 C2.02 25.02, 1.93 118.81, 2.21 142.39" stroke="#1e1e1e" stroke-width="1" fill="none"></path></g><g transform="translate(213.62896728515625 375.87139892578125) rotate(0 1.4079772803931974 71.73729307316245)"><path d="M-9.7 113.88 C-5.24 121.91, -2 129.44, 2.56 140.85 M-7.63 113.79 C-5.04 121.62, -2.58 129.35, 2.11 142.86" stroke="#1e1e1e" stroke-width="1" fill="none"></path></g><g transform="translate(213.62896728515625 375.87139892578125) rotate(0 1.4079772803931974 71.73729307316245)"><path d="M10.82 113.78 C10.09 121.76, 8.14 129.31, 2.56 140.85 M12.9 113.69 C9.65 121.63, 6.27 129.38, 2.11 142.86" stroke="#1e1e1e" stroke-width="1" fill="none"></path></g></g><mask></mask><g stroke-linecap="round" transform="translate(10 519.0131225585938) rotate(0 202.11294555664062 55.524566650390625)"><path d="M27.76 0 M27.76 0 C141.02 -1.41, 253.62 -2.05, 376.46 0 M27.76 0 C107.67 1.01, 187.73 1.05, 376.46 0 M376.46 0 C396.12 -0.98, 403.96 9.63, 404.23 27.76 M376.46 0 C397.2 -1.01, 403.4 9.53, 404.23 27.76 M404.23 27.76 C402.47 47.96, 403.02 66.23, 404.23 83.29 M404.23 27.76 C404.67 41.9, 404.47 55.9, 404.23 83.29 M404.23 83.29 C405.42 99.91, 395.65 111.97, 376.46 111.05 M404.23 83.29 C404.6 102.13, 396.97 109.12, 376.46 111.05 M376.46 111.05 C253.13 109.68, 128.15 108.48, 27.76 111.05 M376.46 111.05 C237.55 111.6, 97.54 112.31, 27.76 111.05 M27.76 111.05 C9.86 111.97, 1.29 101.54, 0 83.29 M27.76 111.05 C7.09 112.48, 0.55 104.08, 0 83.29 M0 83.29 C1.12 68.81, 0.06 52.98, 0 27.76 M0 83.29 C-0.29 63.84, -0.14 44.93, 0 27.76 M0 27.76 C-1.28 8.16, 10.89 -0.97, 27.76 0 M0 27.76 C0.81 8.53, 10.13 -2.04, 27.76 0" stroke="#1971c2" stroke-width="1" fill="none"></path></g><g transform="translate(41.36773681640625 537.4556274414062) rotate(0 174.34983825683594 25)"><text x="0" y="0" font-family="Virgil, Segoe UI Emoji" font-size="20px" fill="#1e1e1e" text-anchor="start" style="white-space: pre;" direction="ltr" dominant-baseline="text-before-edge">usename1, frontdoor.jsp_based_url</text><text x="0" y="25" font-family="Virgil, Segoe UI Emoji" font-size="20px" fill="#1e1e1e" text-anchor="start" style="white-space: pre;" direction="ltr" dominant-baseline="text-before-edge">usename2, frontdoor.jsp_based_url</text></g><g transform="translate(63.36773681640625 600.4556274414062) rotate(0 8.219993591308594 12.5)"><text x="0" y="0" font-family="Virgil, Segoe UI Emoji" font-size="20px" fill="#1e1e1e" text-anchor="start" style="white-space: pre;" direction="ltr" dominant-baseline="text-before-edge">...</text></g></svg>