<?xml version="1.0" encoding="UTF-8" standalone="no"?>
<!DOCTYPE svg PUBLIC "-//W3C//DTD SVG 1.1//EN"
 "http://www.w3.org/Graphics/SVG/1.1/DTD/svg11.dtd">
<!-- Generated by graphviz version 2.44.0 (20200518.1210)
 -->
<!-- Title: RH Pages: 1 -->
<svg width="1268pt" height="357pt"
 viewBox="0.00 0.00 1268.00 356.80" xmlns="http://www.w3.org/2000/svg" xmlns:xlink="http://www.w3.org/1999/xlink">
<g id="graph0" class="graph" transform="scale(1 1) rotate(0) translate(4 352.8)">
<title>RH</title>
<polygon fill="#fefefe" stroke="transparent" points="-4,4 -4,-352.8 1264,-352.8 1264,4 -4,4"/>
<text text-anchor="middle" x="630" y="-8.2" font-family="Times,serif" font-size="14.00">Salesforce Org Chart</text>
<!-- Great Folks -->
<g id="node1" class="node">
<title>Great Folks</title>
<polygon fill="#99ccff" stroke="#99ccff" points="618,-348.8 510,-348.8 510,-312.8 618,-312.8 618,-348.8"/>
<text text-anchor="middle" x="564" y="-327.5" font-family="Arial" font-size="11.00">Great Folks</text>
</g>
<!-- Physics -->
<g id="node2" class="node">
<title>Physics</title>
<polygon fill="#99ccff" stroke="#99ccff" points="360,-204.8 252,-204.8 252,-168.8 360,-168.8 360,-204.8"/>
<text text-anchor="middle" x="306" y="-183.5" font-family="Arial" font-size="11.00">Physics</text>
</g>
<!-- Great Folks&#45;&gt;Physics -->
<g id="edge1" class="edge">
<title>Great Folks&#45;&gt;Physics</title>
<path fill="none" stroke="black" stroke-width="3" d="M532.88,-312.67C486.1,-286.92 397.66,-238.25 346.1,-209.87"/>
<polygon fill="black" stroke="black" stroke-width="3" points="347.68,-206.74 337.23,-204.99 344.3,-212.88 347.68,-206.74"/>
</g>
<!-- Computer -->
<g id="node3" class="node">
<title>Computer</title>
<polygon fill="#99ccff" stroke="#99ccff" points="876,-204.8 768,-204.8 768,-168.8 876,-168.8 876,-204.8"/>
<text text-anchor="middle" x="822" y="-183.5" font-family="Arial" font-size="11.00">Computer</text>
</g>
<!-- Great Folks&#45;&gt;Computer -->
<g id="edge2" class="edge">
<title>Great Folks&#45;&gt;Computer</title>
<path fill="none" stroke="black" stroke-width="3" d="M595.12,-312.67C641.9,-286.92 730.34,-238.25 781.9,-209.87"/>
<polygon fill="black" stroke="black" stroke-width="3" points="783.7,-212.88 790.77,-204.99 780.32,-206.74 783.7,-212.88"/>
</g>
<!-- Issac Newton -->
<g id="node4" class="node">
<title>Issac Newton</title>
<polygon fill="#99ccff" stroke="#99ccff" points="108,-60.8 0,-60.8 0,-24.8 108,-24.8 108,-60.8"/>
<text text-anchor="middle" x="54" y="-39.5" font-family="Arial" font-size="11.00">Issac Newton</text>
</g>
<!-- Physics&#45;&gt;Issac Newton -->
<g id="edge3" class="edge">
<title>Physics&#45;&gt;Issac Newton</title>
<path fill="none" stroke="black" stroke-width="3" d="M275.6,-168.67C230.01,-142.98 143.89,-94.45 93.48,-66.05"/>
<polygon fill="black" stroke="black" stroke-width="3" points="94.94,-62.85 84.5,-60.99 91.5,-68.95 94.94,-62.85"/>
</g>
<!-- Albert Einstein -->
<g id="node5" class="node">
<title>Albert Einstein</title>
<polygon fill="#99ccff" stroke="#99ccff" points="234,-60.8 126,-60.8 126,-24.8 234,-24.8 234,-60.8"/>
<text text-anchor="middle" x="180" y="-39.5" font-family="Arial" font-size="11.00">Albert Einstein</text>
</g>
<!-- Physics&#45;&gt;Albert Einstein -->
<g id="edge4" class="edge">
<title>Physics&#45;&gt;Albert Einstein</title>
<path fill="none" stroke="black" stroke-width="3" d="M290.8,-168.67C268.66,-143.72 227.43,-97.25 201.98,-68.57"/>
<polygon fill="black" stroke="black" stroke-width="3" points="204.51,-66.15 195.25,-60.99 199.27,-70.79 204.51,-66.15"/>
</g>
<!-- Nikola Tesla  -->
<g id="node6" class="node">
<title>Nikola Tesla </title>
<polygon fill="#99ccff" stroke="#99ccff" points="360,-60.8 252,-60.8 252,-24.8 360,-24.8 360,-60.8"/>
<text text-anchor="middle" x="306" y="-39.5" font-family="Arial" font-size="11.00">Nikola Tesla </text>
</g>
<!-- Physics&#45;&gt;Nikola Tesla  -->
<g id="edge5" class="edge">
<title>Physics&#45;&gt;Nikola Tesla </title>
<path fill="none" stroke="black" stroke-width="3" d="M306,-168.67C306,-144.47 306,-100.01 306,-71.19"/>
<polygon fill="black" stroke="black" stroke-width="3" points="309.5,-70.99 306,-60.99 302.5,-70.99 309.5,-70.99"/>
</g>
<!-- Thomas Alva Edison  -->
<g id="node7" class="node">
<title>Thomas Alva Edison </title>
<polygon fill="#99ccff" stroke="#99ccff" points="497.91,-60.8 378.09,-60.8 378.09,-24.8 497.91,-24.8 497.91,-60.8"/>
<text text-anchor="middle" x="438" y="-39.5" font-family="Arial" font-size="11.00">Thomas Alva Edison </text>
</g>
<!-- Physics&#45;&gt;Thomas Alva Edison  -->
<g id="edge6" class="edge">
<title>Physics&#45;&gt;Thomas Alva Edison </title>
<path fill="none" stroke="black" stroke-width="3" d="M321.92,-168.67C345.11,-143.72 388.31,-97.25 414.97,-68.57"/>
<polygon fill="black" stroke="black" stroke-width="3" points="417.78,-70.7 422.02,-60.99 412.65,-65.93 417.78,-70.7"/>
</g>
<!-- Ken Thompson -->
<g id="node8" class="node">
<title>Ken Thompson</title>
<polygon fill="#99ccff" stroke="#99ccff" points="624,-60.8 516,-60.8 516,-24.8 624,-24.8 624,-60.8"/>
<text text-anchor="middle" x="570" y="-39.5" font-family="Arial" font-size="11.00">Ken Thompson</text>
</g>
<!-- Computer&#45;&gt;Ken Thompson -->
<g id="edge7" class="edge">
<title>Computer&#45;&gt;Ken Thompson</title>
<path fill="none" stroke="black" stroke-width="3" d="M791.6,-168.67C746.01,-142.98 659.89,-94.45 609.48,-66.05"/>
<polygon fill="black" stroke="black" stroke-width="3" points="610.94,-62.85 600.5,-60.99 607.5,-68.95 610.94,-62.85"/>
</g>
<!-- Dennis Ritchie -->
<g id="node9" class="node">
<title>Dennis Ritchie</title>
<polygon fill="#99ccff" stroke="#99ccff" points="750,-60.8 642,-60.8 642,-24.8 750,-24.8 750,-60.8"/>
<text text-anchor="middle" x="696" y="-39.5" font-family="Arial" font-size="11.00">Dennis Ritchie</text>
</g>
<!-- Computer&#45;&gt;Dennis Ritchie -->
<g id="edge8" class="edge">
<title>Computer&#45;&gt;Dennis Ritchie</title>
<path fill="none" stroke="black" stroke-width="3" d="M806.8,-168.67C784.66,-143.72 743.43,-97.25 717.98,-68.57"/>
<polygon fill="black" stroke="black" stroke-width="3" points="720.51,-66.15 711.25,-60.99 715.27,-70.79 720.51,-66.15"/>
</g>
<!-- Alan Turing -->
<g id="node10" class="node">
<title>Alan Turing</title>
<polygon fill="#99ccff" stroke="#99ccff" points="876,-60.8 768,-60.8 768,-24.8 876,-24.8 876,-60.8"/>
<text text-anchor="middle" x="822" y="-39.5" font-family="Arial" font-size="11.00">Alan Turing</text>
</g>
<!-- Computer&#45;&gt;Alan Turing -->
<g id="edge9" class="edge">
<title>Computer&#45;&gt;Alan Turing</title>
<path fill="none" stroke="black" stroke-width="3" d="M822,-168.67C822,-144.47 822,-100.01 822,-71.19"/>
<polygon fill="black" stroke="black" stroke-width="3" points="825.5,-70.99 822,-60.99 818.5,-70.99 825.5,-70.99"/>
</g>
<!-- Donald Knuth -->
<g id="node11" class="node">
<title>Donald Knuth</title>
<polygon fill="#99ccff" stroke="#99ccff" points="1002,-60.8 894,-60.8 894,-24.8 1002,-24.8 1002,-60.8"/>
<text text-anchor="middle" x="948" y="-39.5" font-family="Arial" font-size="11.00">Donald Knuth</text>
</g>
<!-- Computer&#45;&gt;Donald Knuth -->
<g id="edge10" class="edge">
<title>Computer&#45;&gt;Donald Knuth</title>
<path fill="none" stroke="black" stroke-width="3" d="M837.2,-168.67C859.34,-143.72 900.57,-97.25 926.02,-68.57"/>
<polygon fill="black" stroke="black" stroke-width="3" points="928.73,-70.79 932.75,-60.99 923.49,-66.15 928.73,-70.79"/>
</g>
<!-- John Von Neumann -->
<g id="node12" class="node">
<title>John Von Neumann</title>
<polygon fill="#99ccff" stroke="#99ccff" points="1133.7,-60.8 1020.3,-60.8 1020.3,-24.8 1133.7,-24.8 1133.7,-60.8"/>
<text text-anchor="middle" x="1077" y="-39.5" font-family="Arial" font-size="11.00">John Von Neumann</text>
</g>
<!-- Computer&#45;&gt;John Von Neumann -->
<g id="edge11" class="edge">
<title>Computer&#45;&gt;John Von Neumann</title>
<path fill="none" stroke="black" stroke-width="3" d="M852.76,-168.67C899,-142.92 986.41,-94.25 1037.36,-65.87"/>
<polygon fill="black" stroke="black" stroke-width="3" points="1039.1,-68.91 1046.13,-60.99 1035.69,-62.8 1039.1,-68.91"/>
</g>
<!-- Niklaus Wirth -->
<g id="node13" class="node">
<title>Niklaus Wirth</title>
<polygon fill="#99ccff" stroke="#99ccff" points="1260,-60.8 1152,-60.8 1152,-24.8 1260,-24.8 1260,-60.8"/>
<text text-anchor="middle" x="1206" y="-39.5" font-family="Arial" font-size="11.00">Niklaus Wirth</text>
</g>
<!-- Computer&#45;&gt;Niklaus Wirth -->
<g id="edge12" class="edge">
<title>Computer&#45;&gt;Niklaus Wirth</title>
<path fill="none" stroke="black" stroke-width="3" d="M868.32,-168.67C939.19,-142.46 1074.32,-92.49 1150.39,-64.36"/>
<polygon fill="black" stroke="black" stroke-width="3" points="1151.65,-67.63 1159.82,-60.88 1149.22,-61.06 1151.65,-67.63"/>
</g>
</g>
</svg>
