<?xml version="1.0" encoding="UTF-8" standalone="no"?>
<!DOCTYPE svg PUBLIC "-//W3C//DTD SVG 1.1//EN"
 "http://www.w3.org/Graphics/SVG/1.1/DTD/svg11.dtd">
<!-- Generated by graphviz version 2.44.0 (20200518.1210)
 -->
<!-- Title: RH Pages: 1 -->
<svg width="1209pt" height="645pt"
 viewBox="0.00 0.00 1209.00 644.80" xmlns="http://www.w3.org/2000/svg" xmlns:xlink="http://www.w3.org/1999/xlink">
<g id="graph0" class="graph" transform="scale(1 1) rotate(0) translate(4 640.8)">
<title>RH</title>
<polygon fill="#fefefe" stroke="transparent" points="-4,4 -4,-640.8 1205,-640.8 1205,4 -4,4"/>
<text text-anchor="middle" x="600.5" y="-8.2" font-family="Times,serif" font-size="14.00">Salesforce RH </text>
<!-- CEO -->
<g id="node1" class="node">
<title>CEO</title>
<polygon fill="#99ccff" stroke="#99ccff" points="681.06,-636.8 573.06,-636.8 573.06,-600.8 681.06,-600.8 681.06,-636.8"/>
<text text-anchor="middle" x="627.06" y="-615.5" font-family="Arial" font-size="11.00">CEO</text>
</g>
<!-- SVP, Sales &amp; Marketing -->
<g id="node2" class="node">
<title>SVP, Sales &amp; Marketing</title>
<polygon fill="#99ccff" stroke="#99ccff" points="414.92,-492.8 281.2,-492.8 281.2,-456.8 414.92,-456.8 414.92,-492.8"/>
<text text-anchor="middle" x="348.06" y="-471.5" font-family="Arial" font-size="11.00">SVP, Sales &amp; Marketing</text>
</g>
<!-- CEO&#45;&gt;SVP, Sales &amp; Marketing -->
<g id="edge1" class="edge">
<title>CEO&#45;&gt;SVP, Sales &amp; Marketing</title>
<path fill="none" stroke="black" stroke-width="3" d="M593.41,-600.67C542.72,-574.87 446.79,-526.05 391.08,-497.7"/>
<polygon fill="black" stroke="black" stroke-width="3" points="392.34,-494.41 381.84,-492.99 389.16,-500.64 392.34,-494.41"/>
</g>
<!-- CFO -->
<g id="node3" class="node">
<title>CFO</title>
<polygon fill="#99ccff" stroke="#99ccff" points="541.06,-492.8 433.06,-492.8 433.06,-456.8 541.06,-456.8 541.06,-492.8"/>
<text text-anchor="middle" x="487.06" y="-471.5" font-family="Arial" font-size="11.00">CFO</text>
</g>
<!-- CEO&#45;&gt;CFO -->
<g id="edge2" class="edge">
<title>CEO&#45;&gt;CFO</title>
<path fill="none" stroke="black" stroke-width="3" d="M610.18,-600.67C585.47,-575.62 539.37,-528.85 511.13,-500.21"/>
<polygon fill="black" stroke="black" stroke-width="3" points="513.52,-497.65 504.01,-492.99 508.54,-502.57 513.52,-497.65"/>
</g>
<!-- SVP, Human Resources -->
<g id="node4" class="node">
<title>SVP, Human Resources</title>
<polygon fill="#99ccff" stroke="#99ccff" points="694.75,-492.8 559.37,-492.8 559.37,-456.8 694.75,-456.8 694.75,-492.8"/>
<text text-anchor="middle" x="627.06" y="-471.5" font-family="Arial" font-size="11.00">SVP, Human Resources</text>
</g>
<!-- CEO&#45;&gt;SVP, Human Resources -->
<g id="edge3" class="edge">
<title>CEO&#45;&gt;SVP, Human Resources</title>
<path fill="none" stroke="black" stroke-width="3" d="M627.06,-600.67C627.06,-576.47 627.06,-532.01 627.06,-503.19"/>
<polygon fill="black" stroke="black" stroke-width="3" points="630.56,-502.99 627.06,-492.99 623.56,-502.99 630.56,-502.99"/>
</g>
<!-- COO -->
<g id="node5" class="node">
<title>COO</title>
<polygon fill="#99ccff" stroke="#99ccff" points="821.06,-492.8 713.06,-492.8 713.06,-456.8 821.06,-456.8 821.06,-492.8"/>
<text text-anchor="middle" x="767.06" y="-471.5" font-family="Arial" font-size="11.00">COO</text>
</g>
<!-- CEO&#45;&gt;COO -->
<g id="edge4" class="edge">
<title>CEO&#45;&gt;COO</title>
<path fill="none" stroke="black" stroke-width="3" d="M643.95,-600.67C668.65,-575.62 714.76,-528.85 743,-500.21"/>
<polygon fill="black" stroke="black" stroke-width="3" points="745.59,-502.57 750.12,-492.99 740.6,-497.65 745.59,-502.57"/>
</g>
<!-- SVP, Customer Service &amp; Support -->
<g id="node6" class="node">
<title>SVP, Customer Service &amp; Support</title>
<polygon fill="#99ccff" stroke="#99ccff" points="1023.04,-492.8 839.09,-492.8 839.09,-456.8 1023.04,-456.8 1023.04,-492.8"/>
<text text-anchor="middle" x="931.06" y="-471.5" font-family="Arial" font-size="11.00">SVP, Customer Service &amp; Support</text>
</g>
<!-- CEO&#45;&gt;SVP, Customer Service &amp; Support -->
<g id="edge5" class="edge">
<title>CEO&#45;&gt;SVP, Customer Service &amp; Support</title>
<path fill="none" stroke="black" stroke-width="3" d="M663.73,-600.67C719.2,-574.76 824.36,-525.64 884.94,-497.35"/>
<polygon fill="black" stroke="black" stroke-width="3" points="886.68,-500.39 894.26,-492.99 883.72,-494.05 886.68,-500.39"/>
</g>
<!-- VP, North American Sales -->
<g id="node7" class="node">
<title>VP, North American Sales</title>
<polygon fill="#99ccff" stroke="#99ccff" points="275.8,-348.8 132.32,-348.8 132.32,-312.8 275.8,-312.8 275.8,-348.8"/>
<text text-anchor="middle" x="204.06" y="-327.5" font-family="Arial" font-size="11.00">VP, North American Sales</text>
</g>
<!-- SVP, Sales &amp; Marketing&#45;&gt;VP, North American Sales -->
<g id="edge6" class="edge">
<title>SVP, Sales &amp; Marketing&#45;&gt;VP, North American Sales</title>
<path fill="none" stroke="black" stroke-width="3" d="M330.69,-456.67C305.29,-431.62 257.86,-384.85 228.81,-356.21"/>
<polygon fill="black" stroke="black" stroke-width="3" points="231.07,-353.52 221.49,-348.99 226.16,-358.5 231.07,-353.52"/>
</g>
<!-- VP, Marketing -->
<g id="node8" class="node">
<title>VP, Marketing</title>
<polygon fill="#99ccff" stroke="#99ccff" points="402.06,-348.8 294.06,-348.8 294.06,-312.8 402.06,-312.8 402.06,-348.8"/>
<text text-anchor="middle" x="348.06" y="-327.5" font-family="Arial" font-size="11.00">VP, Marketing</text>
</g>
<!-- SVP, Sales &amp; Marketing&#45;&gt;VP, Marketing -->
<g id="edge7" class="edge">
<title>SVP, Sales &amp; Marketing&#45;&gt;VP, Marketing</title>
<path fill="none" stroke="black" stroke-width="3" d="M348.06,-456.67C348.06,-432.47 348.06,-388.01 348.06,-359.19"/>
<polygon fill="black" stroke="black" stroke-width="3" points="351.56,-358.99 348.06,-348.99 344.56,-358.99 351.56,-358.99"/>
</g>
<!-- VP, International Sales -->
<g id="node9" class="node">
<title>VP, International Sales</title>
<polygon fill="#99ccff" stroke="#99ccff" points="547.93,-348.8 420.2,-348.8 420.2,-312.8 547.93,-312.8 547.93,-348.8"/>
<text text-anchor="middle" x="484.06" y="-327.5" font-family="Arial" font-size="11.00">VP, International Sales</text>
</g>
<!-- SVP, Sales &amp; Marketing&#45;&gt;VP, International Sales -->
<g id="edge8" class="edge">
<title>SVP, Sales &amp; Marketing&#45;&gt;VP, International Sales</title>
<path fill="none" stroke="black" stroke-width="3" d="M364.47,-456.67C388.36,-431.72 432.87,-385.25 460.34,-356.57"/>
<polygon fill="black" stroke="black" stroke-width="3" points="463.21,-358.63 467.6,-348.99 458.16,-353.79 463.21,-358.63"/>
</g>
<!-- Customer Support, North America -->
<g id="node10" class="node">
<title>Customer Support, North America</title>
<polygon fill="#99ccff" stroke="#99ccff" points="832.69,-348.8 651.43,-348.8 651.43,-312.8 832.69,-312.8 832.69,-348.8"/>
<text text-anchor="middle" x="742.06" y="-327.5" font-family="Arial" font-size="11.00">Customer Support, North America</text>
</g>
<!-- SVP, Customer Service &amp; Support&#45;&gt;Customer Support, North America -->
<g id="edge9" class="edge">
<title>SVP, Customer Service &amp; Support&#45;&gt;Customer Support, North America</title>
<path fill="none" stroke="black" stroke-width="3" d="M908.27,-456.67C874.49,-431.3 811.08,-383.65 773.1,-355.12"/>
<polygon fill="black" stroke="black" stroke-width="3" points="775.04,-352.2 764.94,-348.99 770.83,-357.79 775.04,-352.2"/>
</g>
<!-- Installation &amp; Repair Services -->
<g id="node11" class="node">
<title>Installation &amp; Repair Services</title>
<polygon fill="#99ccff" stroke="#99ccff" points="1010.69,-348.8 851.43,-348.8 851.43,-312.8 1010.69,-312.8 1010.69,-348.8"/>
<text text-anchor="middle" x="931.06" y="-327.5" font-family="Arial" font-size="11.00">Installation &amp; Repair Services</text>
</g>
<!-- SVP, Customer Service &amp; Support&#45;&gt;Installation &amp; Repair Services -->
<g id="edge10" class="edge">
<title>SVP, Customer Service &amp; Support&#45;&gt;Installation &amp; Repair Services</title>
<path fill="none" stroke="black" stroke-width="3" d="M931.06,-456.67C931.06,-432.47 931.06,-388.01 931.06,-359.19"/>
<polygon fill="black" stroke="black" stroke-width="3" points="934.56,-358.99 931.06,-348.99 927.56,-358.99 934.56,-358.99"/>
</g>
<!-- Customer Support, International -->
<g id="node12" class="node">
<title>Customer Support, International</title>
<polygon fill="#99ccff" stroke="#99ccff" points="1200.93,-348.8 1029.19,-348.8 1029.19,-312.8 1200.93,-312.8 1200.93,-348.8"/>
<text text-anchor="middle" x="1115.06" y="-327.5" font-family="Arial" font-size="11.00">Customer Support, International</text>
</g>
<!-- SVP, Customer Service &amp; Support&#45;&gt;Customer Support, International -->
<g id="edge11" class="edge">
<title>SVP, Customer Service &amp; Support&#45;&gt;Customer Support, International</title>
<path fill="none" stroke="black" stroke-width="3" d="M953.26,-456.67C986.14,-431.3 1047.87,-383.65 1084.85,-355.12"/>
<polygon fill="black" stroke="black" stroke-width="3" points="1087.01,-357.87 1092.79,-348.99 1082.73,-352.33 1087.01,-357.87"/>
</g>
<!-- Director, Channel Sales -->
<g id="node14" class="node">
<title>Director, Channel Sales</title>
<polygon fill="#99ccff" stroke="#99ccff" points="132.19,-204.8 -0.06,-204.8 -0.06,-168.8 132.19,-168.8 132.19,-204.8"/>
<text text-anchor="middle" x="66.06" y="-183.5" font-family="Arial" font-size="11.00">Director, Channel Sales</text>
</g>
<!-- VP, North American Sales&#45;&gt;Director, Channel Sales -->
<g id="edge13" class="edge">
<title>VP, North American Sales&#45;&gt;Director, Channel Sales</title>
<path fill="none" stroke="black" stroke-width="3" d="M187.42,-312.67C163.07,-287.62 117.62,-240.85 89.78,-212.21"/>
<polygon fill="black" stroke="black" stroke-width="3" points="92.25,-209.72 82.77,-204.99 87.23,-214.6 92.25,-209.72"/>
</g>
<!-- Director, Direct Sales -->
<g id="node15" class="node">
<title>Director, Direct Sales</title>
<polygon fill="#99ccff" stroke="#99ccff" points="269.95,-204.8 150.18,-204.8 150.18,-168.8 269.95,-168.8 269.95,-204.8"/>
<text text-anchor="middle" x="210.06" y="-183.5" font-family="Arial" font-size="11.00">Director, Direct Sales</text>
</g>
<!-- VP, North American Sales&#45;&gt;Director, Direct Sales -->
<g id="edge14" class="edge">
<title>VP, North American Sales&#45;&gt;Director, Direct Sales</title>
<path fill="none" stroke="black" stroke-width="3" d="M204.79,-312.67C205.81,-288.47 207.69,-244.01 208.91,-215.19"/>
<polygon fill="black" stroke="black" stroke-width="3" points="212.41,-215.13 209.34,-204.99 205.42,-214.83 212.41,-215.13"/>
</g>
<!-- Marketing Team -->
<g id="node13" class="node">
<title>Marketing Team</title>
<polygon fill="#99ccff" stroke="#99ccff" points="402.06,-204.8 294.06,-204.8 294.06,-168.8 402.06,-168.8 402.06,-204.8"/>
<text text-anchor="middle" x="348.06" y="-183.5" font-family="Arial" font-size="11.00">Marketing Team</text>
</g>
<!-- VP, Marketing&#45;&gt;Marketing Team -->
<g id="edge12" class="edge">
<title>VP, Marketing&#45;&gt;Marketing Team</title>
<path fill="none" stroke="black" stroke-width="3" d="M348.06,-312.67C348.06,-288.47 348.06,-244.01 348.06,-215.19"/>
<polygon fill="black" stroke="black" stroke-width="3" points="351.56,-214.99 348.06,-204.99 344.56,-214.99 351.56,-214.99"/>
</g>
<!-- Channel Sales Team -->
<g id="node18" class="node">
<title>Channel Sales Team</title>
<polygon fill="#99ccff" stroke="#99ccff" points="125.25,-60.8 6.87,-60.8 6.87,-24.8 125.25,-24.8 125.25,-60.8"/>
<text text-anchor="middle" x="66.06" y="-39.5" font-family="Arial" font-size="11.00">Channel Sales Team</text>
</g>
<!-- Director, Channel Sales&#45;&gt;Channel Sales Team -->
<g id="edge17" class="edge">
<title>Director, Channel Sales&#45;&gt;Channel Sales Team</title>
<path fill="none" stroke="black" stroke-width="3" d="M66.06,-168.67C66.06,-144.47 66.06,-100.01 66.06,-71.19"/>
<polygon fill="black" stroke="black" stroke-width="3" points="69.56,-70.99 66.06,-60.99 62.56,-70.99 69.56,-70.99"/>
</g>
<!-- Western Sales Team -->
<g id="node16" class="node">
<title>Western Sales Team</title>
<polygon fill="#99ccff" stroke="#99ccff" points="265.24,-60.8 146.88,-60.8 146.88,-24.8 265.24,-24.8 265.24,-60.8"/>
<text text-anchor="middle" x="206.06" y="-39.5" font-family="Arial" font-size="11.00">Western Sales Team</text>
</g>
<!-- Director, Direct Sales&#45;&gt;Western Sales Team -->
<g id="edge15" class="edge">
<title>Director, Direct Sales&#45;&gt;Western Sales Team</title>
<path fill="none" stroke="black" stroke-width="3" d="M209.58,-168.67C208.9,-144.47 207.65,-100.01 206.83,-71.19"/>
<polygon fill="black" stroke="black" stroke-width="3" points="210.33,-70.89 206.55,-60.99 203.33,-71.08 210.33,-70.89"/>
</g>
<!-- Eastern Sales Team -->
<g id="node17" class="node">
<title>Eastern Sales Team</title>
<polygon fill="#99ccff" stroke="#99ccff" points="398.69,-60.8 283.43,-60.8 283.43,-24.8 398.69,-24.8 398.69,-60.8"/>
<text text-anchor="middle" x="341.06" y="-39.5" font-family="Arial" font-size="11.00">Eastern Sales Team</text>
</g>
<!-- Director, Direct Sales&#45;&gt;Eastern Sales Team -->
<g id="edge16" class="edge">
<title>Director, Direct Sales&#45;&gt;Eastern Sales Team</title>
<path fill="none" stroke="black" stroke-width="3" d="M225.86,-168.67C248.88,-143.72 291.75,-97.25 318.21,-68.57"/>
<polygon fill="black" stroke="black" stroke-width="3" points="321,-70.71 325.21,-60.99 315.85,-65.97 321,-70.71"/>
</g>
</g>
</svg>
