<?xml version="1.0" encoding="UTF-8" standalone="no"?>
<!DOCTYPE svg PUBLIC "-//W3C//DTD SVG 1.1//EN"
 "http://www.w3.org/Graphics/SVG/1.1/DTD/svg11.dtd">
<!-- Generated by graphviz version 2.44.0 (20200518.1210)
 -->
<!-- Title: ETMH Pages: 1 -->
<svg width="242pt" height="501pt"
 viewBox="0.00 0.00 242.00 500.80" xmlns="http://www.w3.org/2000/svg" xmlns:xlink="http://www.w3.org/1999/xlink">
<g id="graph0" class="graph" transform="scale(1 1) rotate(0) translate(4 496.8)">
<title>ETMH</title>
<polygon fill="#fefefe" stroke="transparent" points="-4,4 -4,-496.8 238,-496.8 238,4 -4,4"/>
<text text-anchor="middle" x="117" y="-8.2" font-family="Times,serif" font-size="14.00">Salesforce ETMH (Kalam) </text>
<!-- Current Fiscal Year -->
<g id="node1" class="node">
<title>Current Fiscal Year</title>
<polygon fill="#99ccff" stroke="#99ccff" points="172.22,-492.8 61.78,-492.8 61.78,-456.8 172.22,-456.8 172.22,-492.8"/>
<text text-anchor="middle" x="117" y="-471.5" font-family="Arial" font-size="11.00">Current Fiscal Year</text>
</g>
<!-- Northern Mass -->
<g id="node2" class="node">
<title>Northern Mass</title>
<polygon fill="#99ccff" stroke="#99ccff" points="108,-348.8 0,-348.8 0,-312.8 108,-312.8 108,-348.8"/>
<text text-anchor="middle" x="54" y="-327.5" font-family="Arial" font-size="11.00">Northern Mass</text>
</g>
<!-- Current Fiscal Year&#45;&gt;Northern Mass -->
<g id="edge1" class="edge">
<title>Current Fiscal Year&#45;&gt;Northern Mass</title>
<path fill="none" stroke="black" stroke-width="3" d="M109.4,-456.67C98.57,-432.26 78.59,-387.23 65.82,-358.44"/>
<polygon fill="black" stroke="black" stroke-width="3" points="68.88,-356.71 61.63,-348.99 62.48,-359.55 68.88,-356.71"/>
</g>
<!-- Southern Mass -->
<g id="node4" class="node">
<title>Southern Mass</title>
<polygon fill="#99ccff" stroke="#99ccff" points="234,-348.8 126,-348.8 126,-312.8 234,-312.8 234,-348.8"/>
<text text-anchor="middle" x="180" y="-327.5" font-family="Arial" font-size="11.00">Southern Mass</text>
</g>
<!-- Current Fiscal Year&#45;&gt;Southern Mass -->
<g id="edge3" class="edge">
<title>Current Fiscal Year&#45;&gt;Southern Mass</title>
<path fill="none" stroke="black" stroke-width="3" d="M124.6,-456.67C135.43,-432.26 155.41,-387.23 168.18,-358.44"/>
<polygon fill="black" stroke="black" stroke-width="3" points="171.52,-359.55 172.37,-348.99 165.12,-356.71 171.52,-359.55"/>
</g>
<!-- Boston -->
<g id="node3" class="node">
<title>Boston</title>
<polygon fill="#99ccff" stroke="#99ccff" points="108,-204.8 0,-204.8 0,-168.8 108,-168.8 108,-204.8"/>
<text text-anchor="middle" x="54" y="-183.5" font-family="Arial" font-size="11.00">Boston</text>
</g>
<!-- Northern Mass&#45;&gt;Boston -->
<g id="edge2" class="edge">
<title>Northern Mass&#45;&gt;Boston</title>
<path fill="none" stroke="black" stroke-width="3" d="M54,-312.67C54,-288.47 54,-244.01 54,-215.19"/>
<polygon fill="black" stroke="black" stroke-width="3" points="57.5,-214.99 54,-204.99 50.5,-214.99 57.5,-214.99"/>
</g>
<!-- South Boston -->
<g id="node7" class="node">
<title>South Boston</title>
<polygon fill="#99ccff" stroke="#99ccff" points="108,-60.8 0,-60.8 0,-24.8 108,-24.8 108,-60.8"/>
<text text-anchor="middle" x="54" y="-39.5" font-family="Arial" font-size="11.00">South Boston</text>
</g>
<!-- Boston&#45;&gt;South Boston -->
<g id="edge6" class="edge">
<title>Boston&#45;&gt;South Boston</title>
<path fill="none" stroke="black" stroke-width="3" d="M54,-168.67C54,-144.47 54,-100.01 54,-71.19"/>
<polygon fill="black" stroke="black" stroke-width="3" points="57.5,-70.99 54,-60.99 50.5,-70.99 57.5,-70.99"/>
</g>
<!-- Plymouth -->
<g id="node5" class="node">
<title>Plymouth</title>
<polygon fill="#99ccff" stroke="#99ccff" points="234,-204.8 126,-204.8 126,-168.8 234,-168.8 234,-204.8"/>
<text text-anchor="middle" x="180" y="-183.5" font-family="Arial" font-size="11.00">Plymouth</text>
</g>
<!-- Southern Mass&#45;&gt;Plymouth -->
<g id="edge4" class="edge">
<title>Southern Mass&#45;&gt;Plymouth</title>
<path fill="none" stroke="black" stroke-width="3" d="M180,-312.67C180,-288.47 180,-244.01 180,-215.19"/>
<polygon fill="black" stroke="black" stroke-width="3" points="183.5,-214.99 180,-204.99 176.5,-214.99 183.5,-214.99"/>
</g>
<!-- North Plymouth -->
<g id="node6" class="node">
<title>North Plymouth</title>
<polygon fill="#99ccff" stroke="#99ccff" points="234,-60.8 126,-60.8 126,-24.8 234,-24.8 234,-60.8"/>
<text text-anchor="middle" x="180" y="-39.5" font-family="Arial" font-size="11.00">North Plymouth</text>
</g>
<!-- Plymouth&#45;&gt;North Plymouth -->
<g id="edge5" class="edge">
<title>Plymouth&#45;&gt;North Plymouth</title>
<path fill="none" stroke="black" stroke-width="3" d="M180,-168.67C180,-144.47 180,-100.01 180,-71.19"/>
<polygon fill="black" stroke="black" stroke-width="3" points="183.5,-70.99 180,-60.99 176.5,-70.99 183.5,-70.99"/>
</g>
</g>
</svg>
