<?xml version="1.0" encoding="UTF-8" standalone="no"?>
<!DOCTYPE svg PUBLIC "-//W3C//DTD SVG 1.1//EN"
 "http://www.w3.org/Graphics/SVG/1.1/DTD/svg11.dtd">
<!-- Generated by graphviz version 2.50.0 (20211204.2007)
 -->
<!-- Title: Metadata Pages: 1 -->
<svg width="271pt" height="406pt"
 viewBox="0.00 0.00 270.50 406.00" xmlns="http://www.w3.org/2000/svg" xmlns:xlink="http://www.w3.org/1999/xlink">
<g id="graph0" class="graph" transform="scale(1 1) rotate(0) translate(4 402)">
<title>Metadata</title>
<polygon fill="#fefefe" stroke="transparent" points="-4,4 -4,-402 266.5,-402 266.5,4 -4,4"/>
<text text-anchor="middle" x="131.25" y="-7.8" font-family="Times,serif" font-size="14.00">Salesforce Metadata </text>
<!-- SharingSet -->
<g id="node1" class="node">
<title>SharingSet</title>
<g id="a_node1"><a xlink:href="#" xlink:title=" SharingSet ">
<polygon fill="#99ccff" stroke="transparent" points="241,-163 0,-163 0,-23 241,-23 241,-163"/>
<polygon fill="#ffeeff" stroke="transparent" points="0,-23 0,-163 241,-163 241,-23 0,-23"/>
<polygon fill="lightblue" stroke="transparent" points="1.5,-139 1.5,-162 240.5,-162 240.5,-139 1.5,-139"/>
<polygon fill="none" stroke="#99ccff" points="1.5,-139 1.5,-162 240.5,-162 240.5,-139 1.5,-139"/>
<text text-anchor="start" x="81.5" y="-148" font-family="Arial" font-weight="bold" font-size="15.00">SharingSet</text>
<polygon fill="#99ccff" stroke="transparent" points="1.5,-116 1.5,-139 119.5,-139 119.5,-116 1.5,-116"/>
<polygon fill="none" stroke="#99ccff" points="1.5,-116 1.5,-139 119.5,-139 119.5,-116 1.5,-116"/>
<text text-anchor="start" x="4.5" y="-125" font-family="Arial" font-weight="bold" font-size="15.00">Id</text>
<text text-anchor="start" x="18.5" y="-125" font-family="Arial" font-size="15.00"> </text>
<polygon fill="none" stroke="#99ccff" points="119.5,-116 119.5,-139 240.5,-139 240.5,-116 119.5,-116"/>
<text text-anchor="start" x="160.5" y="-124" font-family="Arial" font-size="15.00">id(18)</text>
<polygon fill="none" stroke="#99ccff" points="1.5,-93 1.5,-116 119.5,-116 119.5,-93 1.5,-93"/>
<text text-anchor="start" x="4.5" y="-101" font-family="Arial" font-size="15.00">accessMappings</text>
<polygon fill="none" stroke="#99ccff" points="119.5,-93 119.5,-116 240.5,-116 240.5,-93 119.5,-93"/>
<text text-anchor="start" x="122.5" y="-101" font-family="Arial" font-size="15.00">AccessMapping[]</text>
<polygon fill="none" stroke="#99ccff" points="1.5,-70 1.5,-93 119.5,-93 119.5,-70 1.5,-70"/>
<text text-anchor="start" x="4.5" y="-78" font-family="Arial" font-size="15.00">description</text>
<polygon fill="none" stroke="#99ccff" points="119.5,-70 119.5,-93 240.5,-93 240.5,-70 119.5,-70"/>
<text text-anchor="start" x="143.5" y="-78" font-family="Arial" font-size="15.00">string(255)</text>
<polygon fill="none" stroke="#99ccff" points="1.5,-47 1.5,-70 119.5,-70 119.5,-47 1.5,-47"/>
<text text-anchor="start" x="4.5" y="-55" font-family="Arial" font-size="15.00">name</text>
<polygon fill="none" stroke="#99ccff" points="119.5,-47 119.5,-70 240.5,-70 240.5,-47 119.5,-47"/>
<text text-anchor="start" x="148" y="-55" font-family="Arial" font-size="15.00">string(40)</text>
<polygon fill="none" stroke="#99ccff" points="1.5,-24 1.5,-47 119.5,-47 119.5,-24 1.5,-24"/>
<text text-anchor="start" x="4.5" y="-32" font-family="Arial" font-size="15.00">profiles</text>
<polygon fill="none" stroke="#99ccff" points="119.5,-24 119.5,-47 240.5,-47 240.5,-24 119.5,-24"/>
<text text-anchor="start" x="157" y="-32" font-family="Arial" font-size="15.00">string[]</text>
<polygon fill="none" stroke="#99ccff" points="0,-23 0,-163 241,-163 241,-23 0,-23"/>
</a>
</g>
</g>
<!-- AccessMapping -->
<g id="node2" class="node">
<title>AccessMapping</title>
<g id="a_node2"><a xlink:href="#" xlink:title=" SharingSet ">
<polygon fill="#99ccff" stroke="transparent" points="262.5,-398 118.5,-398 118.5,-281 262.5,-281 262.5,-398"/>
<polygon fill="#ffeeff" stroke="transparent" points="118.5,-281 118.5,-398 262.5,-398 262.5,-281 118.5,-281"/>
<polygon fill="lightblue" stroke="transparent" points="119.5,-373.5 119.5,-396.5 261.5,-396.5 261.5,-373.5 119.5,-373.5"/>
<polygon fill="none" stroke="#99ccff" points="119.5,-373.5 119.5,-396.5 261.5,-396.5 261.5,-373.5 119.5,-373.5"/>
<text text-anchor="start" x="133.5" y="-382.5" font-family="Arial" font-weight="bold" font-size="15.00">AccessMapping</text>
<polygon fill="#99ccff" stroke="transparent" points="119.5,-350.5 119.5,-373.5 218.5,-373.5 218.5,-350.5 119.5,-350.5"/>
<polygon fill="none" stroke="#99ccff" points="119.5,-350.5 119.5,-373.5 218.5,-373.5 218.5,-350.5 119.5,-350.5"/>
<text text-anchor="start" x="122.5" y="-359.5" font-family="Arial" font-weight="bold" font-size="15.00">accessLevel</text>
<text text-anchor="start" x="210.5" y="-359.5" font-family="Arial" font-size="15.00"> </text>
<polygon fill="none" stroke="#99ccff" points="218.5,-350.5 218.5,-373.5 261.5,-373.5 261.5,-350.5 218.5,-350.5"/>
<text text-anchor="start" x="221.5" y="-358.5" font-family="Arial" font-size="15.00">string</text>
<polygon fill="none" stroke="#99ccff" points="119.5,-327.5 119.5,-350.5 218.5,-350.5 218.5,-327.5 119.5,-327.5"/>
<text text-anchor="start" x="122.5" y="-335.5" font-family="Arial" font-size="15.00">object</text>
<polygon fill="none" stroke="#99ccff" points="218.5,-327.5 218.5,-350.5 261.5,-350.5 261.5,-327.5 218.5,-327.5"/>
<text text-anchor="start" x="221.5" y="-335.5" font-family="Arial" font-size="15.00">string</text>
<polygon fill="none" stroke="#99ccff" points="119.5,-304.5 119.5,-327.5 218.5,-327.5 218.5,-304.5 119.5,-304.5"/>
<text text-anchor="start" x="122.5" y="-312.5" font-family="Arial" font-size="15.00">objectField</text>
<polygon fill="none" stroke="#99ccff" points="218.5,-304.5 218.5,-327.5 261.5,-327.5 261.5,-304.5 218.5,-304.5"/>
<text text-anchor="start" x="221.5" y="-312.5" font-family="Arial" font-size="15.00">string</text>
<polygon fill="none" stroke="#99ccff" points="119.5,-281.5 119.5,-304.5 218.5,-304.5 218.5,-281.5 119.5,-281.5"/>
<text text-anchor="start" x="122.5" y="-289.5" font-family="Arial" font-size="15.00">userField</text>
<polygon fill="none" stroke="#99ccff" points="218.5,-281.5 218.5,-304.5 261.5,-304.5 261.5,-281.5 218.5,-281.5"/>
<text text-anchor="start" x="221.5" y="-289.5" font-family="Arial" font-size="15.00">string</text>
<polygon fill="none" stroke="#99ccff" points="118.5,-281 118.5,-398 262.5,-398 262.5,-281 118.5,-281"/>
</a>
</g>
</g>
<!-- AccessMapping&#45;&gt;SharingSet -->
<g id="edge1" class="edge">
<title>AccessMapping:w&#45;&gt;SharingSet:e</title>
<path fill="none" stroke="#ff99cc" stroke-width="3" d="M100.55,-359.44C32.59,-330.5 226.15,-106 119.5,-106"/>
<polygon fill="#ff99cc" stroke="#ff99cc" stroke-width="3" points="108.64,-360.82 117.74,-366.94 113.57,-361.66 118.5,-362.5 118.5,-362.5 118.5,-362.5 113.57,-361.66 119.26,-358.06 108.64,-360.82 108.64,-360.82"/>
<ellipse fill="none" stroke="#ff99cc" stroke-width="3" cx="104.7" cy="-360.15" rx="4" ry="4"/>
<text text-anchor="middle" x="160" y="-219.8" font-family="Monaco" font-size="9.00">AccessMapping</text>
</g>
</g>
</svg>
