<?xml version="1.0" encoding="UTF-8" standalone="no"?>
<!DOCTYPE svg PUBLIC "-//W3C//DTD SVG 1.1//EN"
 "http://www.w3.org/Graphics/SVG/1.1/DTD/svg11.dtd">
<!-- Generated by graphviz version 2.44.0 (20200518.1210)
 -->
<!-- Title: user Pages: 1 -->
<svg width="2270pt" height="431pt"
 viewBox="0.00 0.00 2270.32 430.80" xmlns="http://www.w3.org/2000/svg" xmlns:xlink="http://www.w3.org/1999/xlink">
<g id="graph0" class="graph" transform="scale(1 1) rotate(0) translate(4 426.8)">
<title>user</title>
<polygon fill="white" stroke="transparent" points="-4,4 -4,-426.8 2266.32,-426.8 2266.32,4 -4,4"/>
<text text-anchor="middle" x="1131.16" y="-8.2" font-family="Times,serif" font-size="14.00">User Info for the given user: Mohan Chinnappan</text>
<!-- User:Mohan Chinnappan -->
<g id="node1" class="node">
<title>User:Mohan Chinnappan</title>
<polygon fill="steelblue" stroke="steelblue" points="1114.76,-386.3 1114.76,-422.3 1271.89,-422.3 1271.89,-386.3 1114.76,-386.3"/>
<text text-anchor="middle" x="1193.32" y="-400.1" font-family="Times,serif" font-size="14.00" fill="white">User:Mohan Chinnappan</text>
</g>
<!-- data -->
<g id="node2" class="node">
<title>data</title>
<polygon fill="steelblue" stroke="steelblue" points="19.32,-25.3 19.32,-61.3 73.32,-61.3 73.32,-25.3 19.32,-25.3"/>
<text text-anchor="middle" x="45.98" y="-39.1" font-family="Times,serif" font-size="14.00" fill="white">data</text>
</g>
<!-- User:Mohan Chinnappan&#45;&gt;data -->
<g id="edge1" class="edge">
<title>User:Mohan Chinnappan&#45;&gt;data</title>
<path fill="none" stroke="black" d="M1114.44,-402.32C857.95,-398.96 62.96,-387.02 44.32,-367.8 -34.56,-286.44 12.14,-132.38 35.47,-70.75"/>
<polygon fill="black" stroke="black" points="38.77,-71.93 39.12,-61.35 32.24,-69.4 38.77,-71.93"/>
<polygon fill="#ffcc99" stroke="transparent" points="44.32,-167.8 44.32,-279.8 595.32,-279.8 595.32,-167.8 44.32,-167.8"/>
<polygon fill="none" stroke="black" points="45.82,-256.8 45.82,-278.8 132.82,-278.8 132.82,-256.8 45.82,-256.8"/>
<text text-anchor="start" x="71.83" y="-263.2" font-family="Times,serif" font-size="14.00">userId</text>
<polygon fill="none" stroke="black" points="132.82,-256.8 132.82,-278.8 594.82,-278.8 594.82,-256.8 132.82,-256.8"/>
<text text-anchor="start" x="296.16" y="-263.2" font-family="Times,serif" font-size="14.00">0053h000002xQ5sAAE</text>
<polygon fill="none" stroke="black" points="45.82,-234.8 45.82,-256.8 132.82,-256.8 132.82,-234.8 45.82,-234.8"/>
<text text-anchor="start" x="74.16" y="-241.2" font-family="Times,serif" font-size="14.00">name</text>
<polygon fill="none" stroke="black" points="132.82,-234.8 132.82,-256.8 594.82,-256.8 594.82,-234.8 132.82,-234.8"/>
<text text-anchor="start" x="308.41" y="-241.2" font-family="Times,serif" font-size="14.00">Mohan Chinnappan</text>
<polygon fill="none" stroke="black" points="45.82,-212.8 45.82,-234.8 132.82,-234.8 132.82,-212.8 45.82,-212.8"/>
<text text-anchor="start" x="60.95" y="-219.2" font-family="Times,serif" font-size="14.00">userName</text>
<polygon fill="none" stroke="black" points="132.82,-212.8 132.82,-234.8 594.82,-234.8 594.82,-212.8 132.82,-212.8"/>
<text text-anchor="start" x="256.1" y="-219.2" font-family="Times,serif" font-size="14.00">mohan.chinnappan.n_ea2@gmail.com</text>
<polygon fill="none" stroke="black" points="45.82,-190.8 45.82,-212.8 132.82,-212.8 132.82,-190.8 45.82,-190.8"/>
<text text-anchor="start" x="48.49" y="-197.2" font-family="Times,serif" font-size="14.00">smallPhotoUrl</text>
<polygon fill="none" stroke="black" points="132.82,-190.8 132.82,-212.8 594.82,-212.8 594.82,-190.8 132.82,-190.8"/>
<text text-anchor="start" x="135.8" y="-197.2" font-family="Times,serif" font-size="14.00">https://mohansun&#45;ea&#45;02&#45;dev&#45;ed.file.force.com/profilephoto/7293h000000DuZq/T</text>
<polygon fill="none" stroke="black" points="45.82,-168.8 45.82,-190.8 132.82,-190.8 132.82,-168.8 45.82,-168.8"/>
<text text-anchor="start" x="53.94" y="-175.2" font-family="Times,serif" font-size="14.00">fullPhotoUrl</text>
<polygon fill="none" stroke="black" points="132.82,-168.8 132.82,-190.8 594.82,-190.8 594.82,-168.8 132.82,-168.8"/>
<text text-anchor="start" x="136.18" y="-175.2" font-family="Times,serif" font-size="14.00">https://mohansun&#45;ea&#45;02&#45;dev&#45;ed.file.force.com/profilephoto/7293h000000DuZq/F</text>
<polygon fill="none" stroke="black" points="44.32,-167.8 44.32,-279.8 595.32,-279.8 595.32,-167.8 44.32,-167.8"/>
</g>
<!-- role -->
<g id="node3" class="node">
<title>role</title>
<polygon fill="steelblue" stroke="steelblue" points="593.32,-25.3 593.32,-61.3 647.32,-61.3 647.32,-25.3 593.32,-25.3"/>
<text text-anchor="middle" x="620.21" y="-39.1" font-family="Times,serif" font-size="14.00" fill="white">role</text>
</g>
<!-- User:Mohan Chinnappan&#45;&gt;role -->
<g id="edge2" class="edge">
<title>User:Mohan Chinnappan&#45;&gt;role</title>
<path fill="none" stroke="black" d="M1114.65,-401.25C961.55,-396.86 636.98,-385.52 620.32,-367.8 580.71,-325.65 604.84,-141.9 615.79,-71.7"/>
<polygon fill="black" stroke="black" points="619.3,-71.87 617.42,-61.44 612.39,-70.77 619.3,-71.87"/>
<polygon fill="#ffeeff" stroke="transparent" points="620.32,-79.8 620.32,-367.8 980.32,-367.8 980.32,-79.8 620.32,-79.8"/>
<polygon fill="none" stroke="black" points="621.32,-344.8 621.32,-366.8 840.32,-366.8 840.32,-344.8 621.32,-344.8"/>
<text text-anchor="start" x="724.99" y="-351.2" font-family="Times,serif" font-size="14.00">Id</text>
<polygon fill="none" stroke="black" points="840.32,-344.8 840.32,-366.8 979.32,-366.8 979.32,-344.8 840.32,-344.8"/>
<text text-anchor="start" x="842.94" y="-351.2" font-family="Times,serif" font-size="14.00">00E3h000001JaqUEAS</text>
<polygon fill="none" stroke="black" points="621.32,-322.8 621.32,-344.8 840.32,-344.8 840.32,-322.8 621.32,-322.8"/>
<text text-anchor="start" x="714.11" y="-329.2" font-family="Times,serif" font-size="14.00">Name</text>
<polygon fill="none" stroke="black" points="840.32,-322.8 840.32,-344.8 979.32,-344.8 979.32,-322.8 840.32,-322.8"/>
<text text-anchor="start" x="895.82" y="-329.2" font-family="Times,serif" font-size="14.00">CEO</text>
<polygon fill="none" stroke="black" points="621.32,-300.8 621.32,-322.8 840.32,-322.8 840.32,-300.8 621.32,-300.8"/>
<text text-anchor="start" x="693.89" y="-307.2" font-family="Times,serif" font-size="14.00">ParentRoleId</text>
<polygon fill="none" stroke="black" points="840.32,-300.8 840.32,-322.8 979.32,-322.8 979.32,-300.8 840.32,-300.8"/>
<text text-anchor="start" x="898.93" y="-307.2" font-family="Times,serif" font-size="14.00">null</text>
<polygon fill="none" stroke="black" points="621.32,-278.8 621.32,-300.8 840.32,-300.8 840.32,-278.8 621.32,-278.8"/>
<text text-anchor="start" x="679.11" y="-285.2" font-family="Times,serif" font-size="14.00">RollupDescription</text>
<polygon fill="none" stroke="black" points="840.32,-278.8 840.32,-300.8 979.32,-300.8 979.32,-278.8 840.32,-278.8"/>
<text text-anchor="start" x="895.82" y="-285.2" font-family="Times,serif" font-size="14.00">CEO</text>
<polygon fill="none" stroke="black" points="621.32,-256.8 621.32,-278.8 840.32,-278.8 840.32,-256.8 621.32,-256.8"/>
<text text-anchor="start" x="624.3" y="-263.2" font-family="Times,serif" font-size="14.00">OpportunityAccessForAccountOwner</text>
<polygon fill="none" stroke="black" points="840.32,-256.8 840.32,-278.8 979.32,-278.8 979.32,-256.8 840.32,-256.8"/>
<text text-anchor="start" x="898.16" y="-263.2" font-family="Times,serif" font-size="14.00">Edit</text>
<polygon fill="none" stroke="black" points="621.32,-234.8 621.32,-256.8 840.32,-256.8 840.32,-234.8 621.32,-234.8"/>
<text text-anchor="start" x="644.92" y="-241.2" font-family="Times,serif" font-size="14.00">CaseAccessForAccountOwner</text>
<polygon fill="none" stroke="black" points="840.32,-234.8 840.32,-256.8 979.32,-256.8 979.32,-234.8 840.32,-234.8"/>
<text text-anchor="start" x="898.16" y="-241.2" font-family="Times,serif" font-size="14.00">Edit</text>
<polygon fill="none" stroke="black" points="621.32,-212.8 621.32,-234.8 840.32,-234.8 840.32,-212.8 621.32,-212.8"/>
<text text-anchor="start" x="636.75" y="-219.2" font-family="Times,serif" font-size="14.00">ContactAccessForAccountOwner</text>
<polygon fill="none" stroke="black" points="840.32,-212.8 840.32,-234.8 979.32,-234.8 979.32,-212.8 840.32,-212.8"/>
<text text-anchor="start" x="898.16" y="-219.2" font-family="Times,serif" font-size="14.00">Edit</text>
<polygon fill="none" stroke="black" points="621.32,-190.8 621.32,-212.8 840.32,-212.8 840.32,-190.8 621.32,-190.8"/>
<text text-anchor="start" x="688.07" y="-197.2" font-family="Times,serif" font-size="14.00">ForecastUserId</text>
<polygon fill="none" stroke="black" points="840.32,-190.8 840.32,-212.8 979.32,-212.8 979.32,-190.8 840.32,-190.8"/>
<text text-anchor="start" x="898.93" y="-197.2" font-family="Times,serif" font-size="14.00">null</text>
<polygon fill="none" stroke="black" points="621.32,-168.8 621.32,-190.8 840.32,-190.8 840.32,-168.8 621.32,-168.8"/>
<text text-anchor="start" x="653.47" y="-175.2" font-family="Times,serif" font-size="14.00">MayForecastManagerShare</text>
<polygon fill="none" stroke="black" points="840.32,-168.8 840.32,-190.8 979.32,-190.8 979.32,-168.8 840.32,-168.8"/>
<text text-anchor="start" x="896.61" y="-175.2" font-family="Times,serif" font-size="14.00">false</text>
<polygon fill="none" stroke="black" points="621.32,-146.8 621.32,-168.8 840.32,-168.8 840.32,-146.8 621.32,-146.8"/>
<text text-anchor="start" x="684.96" y="-153.2" font-family="Times,serif" font-size="14.00">DeveloperName</text>
<polygon fill="none" stroke="black" points="840.32,-146.8 840.32,-168.8 979.32,-168.8 979.32,-146.8 840.32,-146.8"/>
<text text-anchor="start" x="895.82" y="-153.2" font-family="Times,serif" font-size="14.00">CEO</text>
<polygon fill="none" stroke="black" points="621.32,-124.8 621.32,-146.8 840.32,-146.8 840.32,-124.8 621.32,-124.8"/>
<text text-anchor="start" x="684.56" y="-131.2" font-family="Times,serif" font-size="14.00">PortalAccountId</text>
<polygon fill="none" stroke="black" points="840.32,-124.8 840.32,-146.8 979.32,-146.8 979.32,-124.8 840.32,-124.8"/>
<text text-anchor="start" x="898.93" y="-131.2" font-family="Times,serif" font-size="14.00">null</text>
<polygon fill="none" stroke="black" points="621.32,-102.8 621.32,-124.8 840.32,-124.8 840.32,-102.8 621.32,-102.8"/>
<text text-anchor="start" x="699.72" y="-109.2" font-family="Times,serif" font-size="14.00">PortalType</text>
<polygon fill="none" stroke="black" points="840.32,-102.8 840.32,-124.8 979.32,-124.8 979.32,-102.8 840.32,-102.8"/>
<text text-anchor="start" x="894.66" y="-109.2" font-family="Times,serif" font-size="14.00">None</text>
<polygon fill="none" stroke="black" points="621.32,-80.8 621.32,-102.8 840.32,-102.8 840.32,-80.8 621.32,-80.8"/>
<text text-anchor="start" x="665.52" y="-87.2" font-family="Times,serif" font-size="14.00">PortalAccountOwnerId</text>
<polygon fill="none" stroke="black" points="840.32,-80.8 840.32,-102.8 979.32,-102.8 979.32,-80.8 840.32,-80.8"/>
<text text-anchor="start" x="898.93" y="-87.2" font-family="Times,serif" font-size="14.00">null</text>
<polygon fill="none" stroke="black" points="620.32,-79.8 620.32,-367.8 980.32,-367.8 980.32,-79.8 620.32,-79.8"/>
</g>
<!-- perms -->
<g id="node4" class="node">
<title>perms</title>
<polygon fill="steelblue" stroke="steelblue" points="976.32,-25.3 976.32,-61.3 1030.32,-61.3 1030.32,-25.3 976.32,-25.3"/>
<text text-anchor="middle" x="1002.93" y="-39.1" font-family="Times,serif" font-size="14.00" fill="white">perms</text>
</g>
<!-- User:Mohan Chinnappan&#45;&gt;perms -->
<g id="edge3" class="edge">
<title>User:Mohan Chinnappan&#45;&gt;perms</title>
<path fill="none" stroke="black" d="M1114.7,-398.46C1069.36,-393.85 1018.58,-384.93 1004.32,-367.8 967.41,-323.44 989.11,-141.83 999.11,-71.92"/>
<polygon fill="black" stroke="black" points="1002.63,-72.09 1000.61,-61.69 995.7,-71.08 1002.63,-72.09"/>
<polygon fill="#99ccff" stroke="transparent" points="1004.32,-167.8 1004.32,-279.8 1362.32,-279.8 1362.32,-167.8 1004.32,-167.8"/>
<polygon fill="none" stroke="black" points="1005.32,-256.8 1005.32,-278.8 1217.32,-278.8 1217.32,-256.8 1005.32,-256.8"/>
<text text-anchor="start" x="1105.49" y="-263.2" font-family="Times,serif" font-size="14.00">Id</text>
<polygon fill="none" stroke="black" points="1217.32,-256.8 1217.32,-278.8 1361.32,-278.8 1361.32,-256.8 1217.32,-256.8"/>
<text text-anchor="start" x="1220.11" y="-263.2" font-family="Times,serif" font-size="14.00">00e3h000001kqJMAAY</text>
<polygon fill="none" stroke="black" points="1005.32,-234.8 1005.32,-256.8 1217.32,-256.8 1217.32,-234.8 1005.32,-234.8"/>
<text text-anchor="start" x="1094.61" y="-241.2" font-family="Times,serif" font-size="14.00">Name</text>
<polygon fill="none" stroke="black" points="1217.32,-234.8 1217.32,-256.8 1361.32,-256.8 1361.32,-234.8 1217.32,-234.8"/>
<text text-anchor="start" x="1227.69" y="-241.2" font-family="Times,serif" font-size="14.00">System Administrator</text>
<polygon fill="none" stroke="black" points="1005.32,-212.8 1005.32,-234.8 1217.32,-234.8 1217.32,-212.8 1005.32,-212.8"/>
<text text-anchor="start" x="1040.17" y="-219.2" font-family="Times,serif" font-size="14.00">PermissionsViewAllData</text>
<polygon fill="none" stroke="black" points="1217.32,-212.8 1217.32,-234.8 1361.32,-234.8 1361.32,-212.8 1217.32,-212.8"/>
<text text-anchor="start" x="1278.44" y="-219.2" font-family="Times,serif" font-size="14.00">true</text>
<polygon fill="none" stroke="black" points="1005.32,-190.8 1005.32,-212.8 1217.32,-212.8 1217.32,-190.8 1005.32,-190.8"/>
<text text-anchor="start" x="1034.34" y="-197.2" font-family="Times,serif" font-size="14.00">PermissionsModifyAllData</text>
<polygon fill="none" stroke="black" points="1217.32,-190.8 1217.32,-212.8 1361.32,-212.8 1361.32,-190.8 1217.32,-190.8"/>
<text text-anchor="start" x="1278.44" y="-197.2" font-family="Times,serif" font-size="14.00">true</text>
<polygon fill="none" stroke="black" points="1005.32,-168.8 1005.32,-190.8 1217.32,-190.8 1217.32,-168.8 1005.32,-168.8"/>
<text text-anchor="start" x="1008.3" y="-175.2" font-family="Times,serif" font-size="14.00">PermissionsManageDataIntegrations</text>
<polygon fill="none" stroke="black" points="1217.32,-168.8 1217.32,-190.8 1361.32,-190.8 1361.32,-168.8 1217.32,-168.8"/>
<text text-anchor="start" x="1278.44" y="-175.2" font-family="Times,serif" font-size="14.00">true</text>
<polygon fill="none" stroke="black" points="1004.32,-167.8 1004.32,-279.8 1362.32,-279.8 1362.32,-167.8 1004.32,-167.8"/>
</g>
<!-- permsets -->
<g id="node5" class="node">
<title>permsets</title>
<polygon fill="steelblue" stroke="steelblue" points="1351.44,-25.3 1351.44,-61.3 1417.2,-61.3 1417.2,-25.3 1351.44,-25.3"/>
<text text-anchor="middle" x="1384.32" y="-39.1" font-family="Times,serif" font-size="14.00" fill="white">permsets</text>
</g>
<!-- User:Mohan Chinnappan&#45;&gt;permsets -->
<g id="edge4" class="edge">
<title>User:Mohan Chinnappan&#45;&gt;permsets</title>
<path fill="none" stroke="black" d="M1272.05,-395.91C1310.09,-390.59 1350.12,-381.83 1362.32,-367.8 1381.52,-345.73 1384.05,-146.28 1384.32,-72.01"/>
<polygon fill="black" stroke="black" points="1387.82,-71.61 1384.34,-61.6 1380.82,-71.59 1387.82,-71.61"/>
<polygon fill="#ffeeff" stroke="transparent" points="1384.32,-167.8 1384.32,-279.8 1812.32,-279.8 1812.32,-167.8 1384.32,-167.8"/>
<polygon fill="none" stroke="black" points="1385.32,-256.8 1385.32,-278.8 1597.32,-278.8 1597.32,-256.8 1385.32,-256.8"/>
<text text-anchor="start" x="1485.49" y="-263.2" font-family="Times,serif" font-size="14.00">Id</text>
<polygon fill="none" stroke="black" points="1597.32,-256.8 1597.32,-278.8 1811.32,-278.8 1811.32,-256.8 1597.32,-256.8"/>
<text text-anchor="start" x="1633.16" y="-263.2" font-family="Times,serif" font-size="14.00">0PS3h000002PwNZGA0</text>
<polygon fill="none" stroke="black" points="1385.32,-234.8 1385.32,-256.8 1597.32,-256.8 1597.32,-234.8 1385.32,-234.8"/>
<text text-anchor="start" x="1475.39" y="-241.2" font-family="Times,serif" font-size="14.00">Label</text>
<polygon fill="none" stroke="black" points="1597.32,-234.8 1597.32,-256.8 1811.32,-256.8 1811.32,-234.8 1597.32,-234.8"/>
<text text-anchor="start" x="1600.11" y="-241.2" font-family="Times,serif" font-size="14.00">00ex00000018ozh_128_09_04_12_1</text>
<polygon fill="none" stroke="black" points="1385.32,-212.8 1385.32,-234.8 1597.32,-234.8 1597.32,-212.8 1385.32,-212.8"/>
<text text-anchor="start" x="1420.17" y="-219.2" font-family="Times,serif" font-size="14.00">PermissionsViewAllData</text>
<polygon fill="none" stroke="black" points="1597.32,-212.8 1597.32,-234.8 1811.32,-234.8 1811.32,-212.8 1597.32,-212.8"/>
<text text-anchor="start" x="1693.44" y="-219.2" font-family="Times,serif" font-size="14.00">true</text>
<polygon fill="none" stroke="black" points="1385.32,-190.8 1385.32,-212.8 1597.32,-212.8 1597.32,-190.8 1385.32,-190.8"/>
<text text-anchor="start" x="1414.34" y="-197.2" font-family="Times,serif" font-size="14.00">PermissionsModifyAllData</text>
<polygon fill="none" stroke="black" points="1597.32,-190.8 1597.32,-212.8 1811.32,-212.8 1811.32,-190.8 1597.32,-190.8"/>
<text text-anchor="start" x="1693.44" y="-197.2" font-family="Times,serif" font-size="14.00">true</text>
<polygon fill="none" stroke="black" points="1385.32,-168.8 1385.32,-190.8 1597.32,-190.8 1597.32,-168.8 1385.32,-168.8"/>
<text text-anchor="start" x="1388.3" y="-175.2" font-family="Times,serif" font-size="14.00">PermissionsManageDataIntegrations</text>
<polygon fill="none" stroke="black" points="1597.32,-168.8 1597.32,-190.8 1811.32,-190.8 1811.32,-168.8 1597.32,-168.8"/>
<text text-anchor="start" x="1693.44" y="-175.2" font-family="Times,serif" font-size="14.00">true</text>
<polygon fill="none" stroke="black" points="1384.32,-167.8 1384.32,-279.8 1812.32,-279.8 1812.32,-167.8 1384.32,-167.8"/>
</g>
<!-- accountTeam -->
<g id="node6" class="node">
<title>accountTeam</title>
<polygon fill="steelblue" stroke="steelblue" points="1789.62,-25.3 1789.62,-61.3 1881.03,-61.3 1881.03,-25.3 1789.62,-25.3"/>
<text text-anchor="middle" x="1835.32" y="-39.1" font-family="Times,serif" font-size="14.00" fill="white">accountTeam</text>
</g>
<!-- User:Mohan Chinnappan&#45;&gt;accountTeam -->
<g id="edge5" class="edge">
<title>User:Mohan Chinnappan&#45;&gt;accountTeam</title>
<path fill="none" stroke="black" d="M1272.07,-401.53C1434.75,-397.51 1794.38,-386.54 1813.32,-367.8 1834.16,-347.19 1835.65,-146.02 1835.49,-71.71"/>
<polygon fill="black" stroke="black" points="1838.99,-71.69 1835.45,-61.7 1831.99,-71.71 1838.99,-71.69"/>
<polygon fill="#ffeeff" stroke="transparent" points="1835.32,-211.8 1835.32,-235.8 1909.32,-235.8 1909.32,-211.8 1835.32,-211.8"/>
<polygon fill="none" stroke="black" points="1836.32,-212.8 1836.32,-234.8 1908.32,-234.8 1908.32,-212.8 1836.32,-212.8"/>
<text text-anchor="start" x="1839.08" y="-219.2" font-family="Times,serif" font-size="14.00">None found</text>
<polygon fill="none" stroke="black" points="1835.32,-211.8 1835.32,-235.8 1909.32,-235.8 1909.32,-211.8 1835.32,-211.8"/>
</g>
<!-- opptyTeam -->
<g id="node7" class="node">
<title>opptyTeam</title>
<polygon fill="steelblue" stroke="steelblue" points="1899.44,-25.3 1899.44,-61.3 1979.2,-61.3 1979.2,-25.3 1899.44,-25.3"/>
<text text-anchor="middle" x="1939.32" y="-39.1" font-family="Times,serif" font-size="14.00" fill="white">opptyTeam</text>
</g>
<!-- User:Mohan Chinnappan&#45;&gt;opptyTeam -->
<g id="edge6" class="edge">
<title>User:Mohan Chinnappan&#45;&gt;opptyTeam</title>
<path fill="none" stroke="black" d="M1272.21,-402.17C1454.39,-399.21 1890.61,-389.82 1913.32,-367.8 1994.77,-288.83 1964.18,-133.96 1947.41,-71.44"/>
<polygon fill="black" stroke="black" points="1950.71,-70.24 1944.66,-61.54 1943.97,-72.12 1950.71,-70.24"/>
<polygon fill="#ffeeff" stroke="transparent" points="1966.32,-156.8 1966.32,-290.8 2262.32,-290.8 2262.32,-156.8 1966.32,-156.8"/>
<polygon fill="none" stroke="black" points="1967.32,-267.8 1967.32,-289.8 2112.32,-289.8 2112.32,-267.8 1967.32,-267.8"/>
<text text-anchor="start" x="2033.99" y="-274.2" font-family="Times,serif" font-size="14.00">Id</text>
<polygon fill="none" stroke="black" points="2112.32,-267.8 2112.32,-289.8 2261.32,-289.8 2261.32,-267.8 2112.32,-267.8"/>
<text text-anchor="start" x="2114.88" y="-274.2" font-family="Times,serif" font-size="14.00">00q3h000000FMRdAAO</text>
<polygon fill="none" stroke="black" points="1967.32,-245.8 1967.32,-267.8 2112.32,-267.8 2112.32,-245.8 1967.32,-245.8"/>
<text text-anchor="start" x="2023.11" y="-252.2" font-family="Times,serif" font-size="14.00">Name</text>
<polygon fill="none" stroke="black" points="2112.32,-245.8 2112.32,-267.8 2261.32,-267.8 2261.32,-245.8 2112.32,-245.8"/>
<text text-anchor="start" x="2131.41" y="-252.2" font-family="Times,serif" font-size="14.00">Mohan Chinnappan</text>
<polygon fill="none" stroke="black" points="1967.32,-223.8 1967.32,-245.8 2112.32,-245.8 2112.32,-223.8 1967.32,-223.8"/>
<text text-anchor="start" x="1969.85" y="-230.2" font-family="Times,serif" font-size="14.00">OpportunityAccessLevel</text>
<polygon fill="none" stroke="black" points="2112.32,-223.8 2112.32,-245.8 2261.32,-245.8 2261.32,-223.8 2112.32,-223.8"/>
<text text-anchor="start" x="2172.44" y="-230.2" font-family="Times,serif" font-size="14.00">Read</text>
<polygon fill="none" stroke="black" points="1967.32,-201.8 1967.32,-223.8 2112.32,-223.8 2112.32,-201.8 1967.32,-201.8"/>
<text text-anchor="start" x="1999.77" y="-208.2" font-family="Times,serif" font-size="14.00">OpportunityId</text>
<polygon fill="none" stroke="black" points="2112.32,-201.8 2112.32,-223.8 2261.32,-223.8 2261.32,-201.8 2112.32,-201.8"/>
<text text-anchor="start" x="2117.61" y="-208.2" font-family="Times,serif" font-size="14.00">0063h000008wq3kAAA</text>
<polygon fill="none" stroke="black" points="1967.32,-179.8 1967.32,-201.8 2112.32,-201.8 2112.32,-179.8 1967.32,-179.8"/>
<text text-anchor="start" x="1986.95" y="-186.2" font-family="Times,serif" font-size="14.00">TeamMemberRole</text>
<polygon fill="none" stroke="black" points="2112.32,-179.8 2112.32,-201.8 2261.32,-201.8 2261.32,-179.8 2112.32,-179.8"/>
<text text-anchor="start" x="2136.48" y="-186.2" font-family="Times,serif" font-size="14.00">Account Manager</text>
<polygon fill="none" stroke="black" points="1967.32,-157.8 1967.32,-179.8 2112.32,-179.8 2112.32,-157.8 1967.32,-157.8"/>
<text text-anchor="start" x="2026.6" y="-164.2" font-family="Times,serif" font-size="14.00">Title</text>
<polygon fill="none" stroke="black" points="2112.32,-157.8 2112.32,-179.8 2261.32,-179.8 2261.32,-157.8 2112.32,-157.8"/>
<text text-anchor="start" x="2175.93" y="-164.2" font-family="Times,serif" font-size="14.00">null</text>
<polygon fill="none" stroke="black" points="1966.32,-156.8 1966.32,-290.8 2262.32,-290.8 2262.32,-156.8 1966.32,-156.8"/>
</g>
</g>
</svg>
