<svg xmlns="http://www.w3.org/2000/svg" xmlns:xlink="http://www.w3.org/1999/xlink" version="1.1" class="marks" width="1349" height="381" viewBox="0 0 1349 381"><rect width="1349" height="381" fill="white"/><g fill="none" stroke-miterlimit="10" transform="translate(44,27)"><g class="mark-group role-frame root" role="graphics-object" aria-roledescription="group mark container"><g transform="translate(0,0)"><path class="background" aria-hidden="true" d="M0.5,0.5h1300v200h-1300Z" stroke="#ddd"/><g><g class="mark-group role-axis" aria-hidden="true"><g transform="translate(0.5,0.5)"><path class="background" aria-hidden="true" d="M0,0h0v0h0Z" pointer-events="none"/><g><g class="mark-rule role-axis-grid" pointer-events="none"><line transform="translate(0,200)" x2="1300" y2="0" stroke="#ddd" stroke-width="1" opacity="1"/><line transform="translate(0,160)" x2="1300" y2="0" stroke="#ddd" stroke-width="1" opacity="1"/><line transform="translate(0,120)" x2="1300" y2="0" stroke="#ddd" stroke-width="1" opacity="1"/><line transform="translate(0,80)" x2="1300" y2="0" stroke="#ddd" stroke-width="1" opacity="1"/><line transform="translate(0,40)" x2="1300" y2="0" stroke="#ddd" stroke-width="1" opacity="1"/><line transform="translate(0,0)" x2="1300" y2="0" stroke="#ddd" stroke-width="1" opacity="1"/></g></g><path class="foreground" aria-hidden="true" d="" pointer-events="none" display="none"/></g></g><g class="mark-group role-axis" role="graphics-symbol" aria-roledescription="axis" aria-label="X-axis titled 'name' for a discrete scale with 65 values: AccountNumber, AccountSource, Active__c, AnnualRevenue, BillingCity, ending with YearStarted"><g transform="translate(0.5,200.5)"><path class="background" aria-hidden="true" d="M0,0h0v0h0Z" pointer-events="none"/><g><g class="mark-rule role-axis-tick" pointer-events="none"><line transform="translate(10,0)" x2="0" y2="5" stroke="#888" stroke-width="1" opacity="1"/><line transform="translate(30,0)" x2="0" y2="5" stroke="#888" stroke-width="1" opacity="1"/><line transform="translate(50,0)" x2="0" y2="5" stroke="#888" stroke-width="1" opacity="1"/><line transform="translate(70,0)" x2="0" y2="5" stroke="#888" stroke-width="1" opacity="1"/><line transform="translate(90,0)" x2="0" y2="5" stroke="#888" stroke-width="1" opacity="1"/><line transform="translate(110,0)" x2="0" y2="5" stroke="#888" stroke-width="1" opacity="1"/><line transform="translate(130,0)" x2="0" y2="5" stroke="#888" stroke-width="1" opacity="1"/><line transform="translate(150,0)" x2="0" y2="5" stroke="#888" stroke-width="1" opacity="1"/><line transform="translate(170,0)" x2="0" y2="5" stroke="#888" stroke-width="1" opacity="1"/><line transform="translate(190,0)" x2="0" y2="5" stroke="#888" stroke-width="1" opacity="1"/><line transform="translate(210,0)" x2="0" y2="5" stroke="#888" stroke-width="1" opacity="1"/><line transform="translate(230,0)" x2="0" y2="5" stroke="#888" stroke-width="1" opacity="1"/><line transform="translate(250,0)" x2="0" y2="5" stroke="#888" stroke-width="1" opacity="1"/><line transform="translate(270,0)" x2="0" y2="5" stroke="#888" stroke-width="1" opacity="1"/><line transform="translate(290,0)" x2="0" y2="5" stroke="#888" stroke-width="1" opacity="1"/><line transform="translate(310,0)" x2="0" y2="5" stroke="#888" stroke-width="1" opacity="1"/><line transform="translate(330,0)" x2="0" y2="5" stroke="#888" stroke-width="1" opacity="1"/><line transform="translate(350,0)" x2="0" y2="5" stroke="#888" stroke-width="1" opacity="1"/><line transform="translate(370,0)" x2="0" y2="5" stroke="#888" stroke-width="1" opacity="1"/><line transform="translate(390,0)" x2="0" y2="5" stroke="#888" stroke-width="1" opacity="1"/><line transform="translate(410,0)" x2="0" y2="5" stroke="#888" stroke-width="1" opacity="1"/><line transform="translate(430,0)" x2="0" y2="5" stroke="#888" stroke-width="1" opacity="1"/><line transform="translate(450,0)" x2="0" y2="5" stroke="#888" stroke-width="1" opacity="1"/><line transform="translate(470,0)" x2="0" y2="5" stroke="#888" stroke-width="1" opacity="1"/><line transform="translate(490,0)" x2="0" y2="5" stroke="#888" stroke-width="1" opacity="1"/><line transform="translate(510,0)" x2="0" y2="5" stroke="#888" stroke-width="1" opacity="1"/><line transform="translate(530,0)" x2="0" y2="5" stroke="#888" stroke-width="1" opacity="1"/><line transform="translate(550,0)" x2="0" y2="5" stroke="#888" stroke-width="1" opacity="1"/><line transform="translate(570,0)" x2="0" y2="5" stroke="#888" stroke-width="1" opacity="1"/><line transform="translate(590,0)" x2="0" y2="5" stroke="#888" stroke-width="1" opacity="1"/><line transform="translate(610,0)" x2="0" y2="5" stroke="#888" stroke-width="1" opacity="1"/><line transform="translate(630,0)" x2="0" y2="5" stroke="#888" stroke-width="1" opacity="1"/><line transform="translate(650,0)" x2="0" y2="5" stroke="#888" stroke-width="1" opacity="1"/><line transform="translate(670,0)" x2="0" y2="5" stroke="#888" stroke-width="1" opacity="1"/><line transform="translate(690,0)" x2="0" y2="5" stroke="#888" stroke-width="1" opacity="1"/><line transform="translate(710,0)" x2="0" y2="5" stroke="#888" stroke-width="1" opacity="1"/><line transform="translate(730,0)" x2="0" y2="5" stroke="#888" stroke-width="1" opacity="1"/><line transform="translate(750,0)" x2="0" y2="5" stroke="#888" stroke-width="1" opacity="1"/><line transform="translate(770,0)" x2="0" y2="5" stroke="#888" stroke-width="1" opacity="1"/><line transform="translate(790,0)" x2="0" y2="5" stroke="#888" stroke-width="1" opacity="1"/><line transform="translate(810,0)" x2="0" y2="5" stroke="#888" stroke-width="1" opacity="1"/><line transform="translate(830,0)" x2="0" y2="5" stroke="#888" stroke-width="1" opacity="1"/><line transform="translate(850,0)" x2="0" y2="5" stroke="#888" stroke-width="1" opacity="1"/><line transform="translate(870,0)" x2="0" y2="5" stroke="#888" stroke-width="1" opacity="1"/><line transform="translate(890,0)" x2="0" y2="5" stroke="#888" stroke-width="1" opacity="1"/><line transform="translate(910,0)" x2="0" y2="5" stroke="#888" stroke-width="1" opacity="1"/><line transform="translate(930,0)" x2="0" y2="5" stroke="#888" stroke-width="1" opacity="1"/><line transform="translate(950,0)" x2="0" y2="5" stroke="#888" stroke-width="1" opacity="1"/><line transform="translate(970,0)" x2="0" y2="5" stroke="#888" stroke-width="1" opacity="1"/><line transform="translate(990,0)" x2="0" y2="5" stroke="#888" stroke-width="1" opacity="1"/><line transform="translate(1010,0)" x2="0" y2="5" stroke="#888" stroke-width="1" opacity="1"/><line transform="translate(1030,0)" x2="0" y2="5" stroke="#888" stroke-width="1" opacity="1"/><line transform="translate(1050,0)" x2="0" y2="5" stroke="#888" stroke-width="1" opacity="1"/><line transform="translate(1070,0)" x2="0" y2="5" stroke="#888" stroke-width="1" opacity="1"/><line transform="translate(1090,0)" x2="0" y2="5" stroke="#888" stroke-width="1" opacity="1"/><line transform="translate(1110,0)" x2="0" y2="5" stroke="#888" stroke-width="1" opacity="1"/><line transform="translate(1130,0)" x2="0" y2="5" stroke="#888" stroke-width="1" opacity="1"/><line transform="translate(1150,0)" x2="0" y2="5" stroke="#888" stroke-width="1" opacity="1"/><line transform="translate(1170,0)" x2="0" y2="5" stroke="#888" stroke-width="1" opacity="1"/><line transform="translate(1190,0)" x2="0" y2="5" stroke="#888" stroke-width="1" opacity="1"/><line transform="translate(1210,0)" x2="0" y2="5" stroke="#888" stroke-width="1" opacity="1"/><line transform="translate(1230,0)" x2="0" y2="5" stroke="#888" stroke-width="1" opacity="1"/><line transform="translate(1250,0)" x2="0" y2="5" stroke="#888" stroke-width="1" opacity="1"/><line transform="translate(1270,0)" x2="0" y2="5" stroke="#888" stroke-width="1" opacity="1"/><line transform="translate(1290,0)" x2="0" y2="5" stroke="#888" stroke-width="1" opacity="1"/></g><g class="mark-text role-axis-label" pointer-events="none"><text text-anchor="end" transform="translate(9.5,7) rotate(270) translate(0,3)" font-family="sans-serif" font-size="10px" fill="#000" opacity="1">AccountNumber</text><text text-anchor="end" transform="translate(29.5,7) rotate(270) translate(0,3)" font-family="sans-serif" font-size="10px" fill="#000" opacity="1">AccountSource</text><text text-anchor="end" transform="translate(49.5,7) rotate(270) translate(0,3)" font-family="sans-serif" font-size="10px" fill="#000" opacity="1">Active__c</text><text text-anchor="end" transform="translate(69.5,7) rotate(270) translate(0,3)" font-family="sans-serif" font-size="10px" fill="#000" opacity="1">AnnualRevenue</text><text text-anchor="end" transform="translate(89.5,7) rotate(270) translate(0,3)" font-family="sans-serif" font-size="10px" fill="#000" opacity="1">BillingCity</text><text text-anchor="end" transform="translate(109.5,7) rotate(270) translate(0,3)" font-family="sans-serif" font-size="10px" fill="#000" opacity="1">BillingCountry</text><text text-anchor="end" transform="translate(129.5,7) rotate(270) translate(0,3)" font-family="sans-serif" font-size="10px" fill="#000" opacity="1">BillingGeocodeAccuracy</text><text text-anchor="end" transform="translate(149.5,7) rotate(270) translate(0,3)" font-family="sans-serif" font-size="10px" fill="#000" opacity="1">BillingLatitude</text><text text-anchor="end" transform="translate(169.5,7) rotate(270) translate(0,3)" font-family="sans-serif" font-size="10px" fill="#000" opacity="1">BillingLongitude</text><text text-anchor="end" transform="translate(189.5,7) rotate(270) translate(0,3)" font-family="sans-serif" font-size="10px" fill="#000" opacity="1">BillingPostalCode</text><text text-anchor="end" transform="translate(209.5,7) rotate(270) translate(0,3)" font-family="sans-serif" font-size="10px" fill="#000" opacity="1">BillingState</text><text text-anchor="end" transform="translate(229.5,7) rotate(270) translate(0,3)" font-family="sans-serif" font-size="10px" fill="#000" opacity="1">BillingStreet</text><text text-anchor="end" transform="translate(249.5,7) rotate(270) translate(0,3)" font-family="sans-serif" font-size="10px" fill="#000" opacity="1">ChannelProgramLevelName</text><text text-anchor="end" transform="translate(269.5,7) rotate(270) translate(0,3)" font-family="sans-serif" font-size="10px" fill="#000" opacity="1">ChannelProgramName</text><text text-anchor="end" transform="translate(289.5,7) rotate(270) translate(0,3)" font-family="sans-serif" font-size="10px" fill="#000" opacity="1">CleanStatus</text><text text-anchor="end" transform="translate(309.5,7) rotate(270) translate(0,3)" font-family="sans-serif" font-size="10px" fill="#000" opacity="1">CreatedById</text><text text-anchor="end" transform="translate(329.5,7) rotate(270) translate(0,3)" font-family="sans-serif" font-size="10px" fill="#000" opacity="1">CreatedDate</text><text text-anchor="end" transform="translate(349.5,7) rotate(270) translate(0,3)" font-family="sans-serif" font-size="10px" fill="#000" opacity="1">CurrencyIsoCode</text><text text-anchor="end" transform="translate(369.5,7) rotate(270) translate(0,3)" font-family="sans-serif" font-size="10px" fill="#000" opacity="1">CustomerPriority__c</text><text text-anchor="end" transform="translate(389.5,7) rotate(270) translate(0,3)" font-family="sans-serif" font-size="10px" fill="#000" opacity="1">DandbCompanyId</text><text text-anchor="end" transform="translate(409.5,7) rotate(270) translate(0,3)" font-family="sans-serif" font-size="10px" fill="#000" opacity="1">DunsNumber</text><text text-anchor="end" transform="translate(429.5,7) rotate(270) translate(0,3)" font-family="sans-serif" font-size="10px" fill="#000" opacity="1">Fax</text><text text-anchor="end" transform="translate(449.5,7) rotate(270) translate(0,3)" font-family="sans-serif" font-size="10px" fill="#000" opacity="1">Id</text><text text-anchor="end" transform="translate(469.5,7) rotate(270) translate(0,3)" font-family="sans-serif" font-size="10px" fill="#000" opacity="1">Industry</text><text text-anchor="end" transform="translate(489.5,7) rotate(270) translate(0,3)" font-family="sans-serif" font-size="10px" fill="#000" opacity="1">Jigsaw</text><text text-anchor="end" transform="translate(509.5,7) rotate(270) translate(0,3)" font-family="sans-serif" font-size="10px" fill="#000" opacity="1">JigsawCompanyId</text><text text-anchor="end" transform="translate(529.5,7) rotate(270) translate(0,3)" font-family="sans-serif" font-size="10px" fill="#000" opacity="1">LastActivityDate</text><text text-anchor="end" transform="translate(549.5,7) rotate(270) translate(0,3)" font-family="sans-serif" font-size="10px" fill="#000" opacity="1">LastModifiedById</text><text text-anchor="end" transform="translate(569.5,7) rotate(270) translate(0,3)" font-family="sans-serif" font-size="10px" fill="#000" opacity="1">LastModifiedDate</text><text text-anchor="end" transform="translate(589.5,7) rotate(270) translate(0,3)" font-family="sans-serif" font-size="10px" fill="#000" opacity="1">LastReferencedDate</text><text text-anchor="end" transform="translate(609.5,7) rotate(270) translate(0,3)" font-family="sans-serif" font-size="10px" fill="#000" opacity="1">LastViewedDate</text><text text-anchor="end" transform="translate(629.5,7) rotate(270) translate(0,3)" font-family="sans-serif" font-size="10px" fill="#000" opacity="1">MasterRecordId</text><text text-anchor="end" transform="translate(649.5,7) rotate(270) translate(0,3)" font-family="sans-serif" font-size="10px" fill="#000" opacity="1">NaicsCode</text><text text-anchor="end" transform="translate(669.5,7) rotate(270) translate(0,3)" font-family="sans-serif" font-size="10px" fill="#000" opacity="1">NaicsDesc</text><text text-anchor="end" transform="translate(689.5,7) rotate(270) translate(0,3)" font-family="sans-serif" font-size="10px" fill="#000" opacity="1">Name</text><text text-anchor="end" transform="translate(709.5,7) rotate(270) translate(0,3)" font-family="sans-serif" font-size="10px" fill="#000" opacity="1">NumberOfEmployees</text><text text-anchor="end" transform="translate(729.5,7) rotate(270) translate(0,3)" font-family="sans-serif" font-size="10px" fill="#000" opacity="1">NumberofLocations__c</text><text text-anchor="end" transform="translate(749.5,7) rotate(270) translate(0,3)" font-family="sans-serif" font-size="10px" fill="#000" opacity="1">OwnerId</text><text text-anchor="end" transform="translate(769.5,7) rotate(270) translate(0,3)" font-family="sans-serif" font-size="10px" fill="#000" opacity="1">Ownership</text><text text-anchor="end" transform="translate(789.5,7) rotate(270) translate(0,3)" font-family="sans-serif" font-size="10px" fill="#000" opacity="1">ParentId</text><text text-anchor="end" transform="translate(809.5,7) rotate(270) translate(0,3)" font-family="sans-serif" font-size="10px" fill="#000" opacity="1">Phone</text><text text-anchor="end" transform="translate(829.5,7) rotate(270) translate(0,3)" font-family="sans-serif" font-size="10px" fill="#000" opacity="1">PhotoUrl</text><text text-anchor="end" transform="translate(849.5,7) rotate(270) translate(0,3)" font-family="sans-serif" font-size="10px" fill="#000" opacity="1">Rating</text><text text-anchor="end" transform="translate(869.5,7) rotate(270) translate(0,3)" font-family="sans-serif" font-size="10px" fill="#000" opacity="1">SLAExpirationDate__c</text><text text-anchor="end" transform="translate(889.5,7) rotate(270) translate(0,3)" font-family="sans-serif" font-size="10px" fill="#000" opacity="1">SLASerialNumber__c</text><text text-anchor="end" transform="translate(909.5,7) rotate(270) translate(0,3)" font-family="sans-serif" font-size="10px" fill="#000" opacity="1">SLA__c</text><text text-anchor="end" transform="translate(929.5,7) rotate(270) translate(0,3)" font-family="sans-serif" font-size="10px" fill="#000" opacity="1">Segment__c</text><text text-anchor="end" transform="translate(949.5,7) rotate(270) translate(0,3)" font-family="sans-serif" font-size="10px" fill="#000" opacity="1">ShippingCity</text><text text-anchor="end" transform="translate(969.5,7) rotate(270) translate(0,3)" font-family="sans-serif" font-size="10px" fill="#000" opacity="1">ShippingCountry</text><text text-anchor="end" transform="translate(989.5,7) rotate(270) translate(0,3)" font-family="sans-serif" font-size="10px" fill="#000" opacity="1">ShippingGeocodeAccuracy</text><text text-anchor="end" transform="translate(1009.5,7) rotate(270) translate(0,3)" font-family="sans-serif" font-size="10px" fill="#000" opacity="1">ShippingLatitude</text><text text-anchor="end" transform="translate(1029.5,7) rotate(270) translate(0,3)" font-family="sans-serif" font-size="10px" fill="#000" opacity="1">ShippingLongitude</text><text text-anchor="end" transform="translate(1049.5,7) rotate(270) translate(0,3)" font-family="sans-serif" font-size="10px" fill="#000" opacity="1">ShippingPostalCode</text><text text-anchor="end" transform="translate(1069.5,7) rotate(270) translate(0,3)" font-family="sans-serif" font-size="10px" fill="#000" opacity="1">ShippingState</text><text text-anchor="end" transform="translate(1089.5,7) rotate(270) translate(0,3)" font-family="sans-serif" font-size="10px" fill="#000" opacity="1">ShippingStreet</text><text text-anchor="end" transform="translate(1109.5,7) rotate(270) translate(0,3)" font-family="sans-serif" font-size="10px" fill="#000" opacity="1">Sic</text><text text-anchor="end" transform="translate(1129.5,7) rotate(270) translate(0,3)" font-family="sans-serif" font-size="10px" fill="#000" opacity="1">SicDesc</text><text text-anchor="end" transform="translate(1149.5,7) rotate(270) translate(0,3)" font-family="sans-serif" font-size="10px" fill="#000" opacity="1">Site</text><text text-anchor="end" transform="translate(1169.5,7) rotate(270) translate(0,3)" font-family="sans-serif" font-size="10px" fill="#000" opacity="1">SystemModstamp</text><text text-anchor="end" transform="translate(1189.5,7) rotate(270) translate(0,3)" font-family="sans-serif" font-size="10px" fill="#000" opacity="1">TickerSymbol</text><text text-anchor="end" transform="translate(1209.5,7) rotate(270) translate(0,3)" font-family="sans-serif" font-size="10px" fill="#000" opacity="1">Tradestyle</text><text text-anchor="end" transform="translate(1229.5,7) rotate(270) translate(0,3)" font-family="sans-serif" font-size="10px" fill="#000" opacity="1">Type</text><text text-anchor="end" transform="translate(1249.5,7) rotate(270) translate(0,3)" font-family="sans-serif" font-size="10px" fill="#000" opacity="1">UpsellOpportunity__c</text><text text-anchor="end" transform="translate(1269.5,7) rotate(270) translate(0,3)" font-family="sans-serif" font-size="10px" fill="#000" opacity="1">Website</text><text text-anchor="end" transform="translate(1289.5,7) rotate(270) translate(0,3)" font-family="sans-serif" font-size="10px" fill="#000" opacity="1">YearStarted</text></g><g class="mark-rule role-axis-domain" pointer-events="none"><line transform="translate(0,0)" x2="1300" y2="0" stroke="#888" stroke-width="1" opacity="1"/></g><g class="mark-text role-axis-title" pointer-events="none"><text text-anchor="middle" transform="translate(650,146.1767578125)" font-family="sans-serif" font-size="11px" font-weight="bold" fill="#000" opacity="1">name</text></g></g><path class="foreground" aria-hidden="true" d="" pointer-events="none" display="none"/></g></g><g class="mark-group role-axis" role="graphics-symbol" aria-roledescription="axis" aria-label="Y-axis titled 'usage' for a linear scale with values from 0 to 100"><g transform="translate(0.5,0.5)"><path class="background" aria-hidden="true" d="M0,0h0v0h0Z" pointer-events="none"/><g><g class="mark-rule role-axis-tick" pointer-events="none"><line transform="translate(0,200)" x2="-5" y2="0" stroke="#888" stroke-width="1" opacity="1"/><line transform="translate(0,160)" x2="-5" y2="0" stroke="#888" stroke-width="1" opacity="1"/><line transform="translate(0,120)" x2="-5" y2="0" stroke="#888" stroke-width="1" opacity="1"/><line transform="translate(0,80)" x2="-5" y2="0" stroke="#888" stroke-width="1" opacity="1"/><line transform="translate(0,40)" x2="-5" y2="0" stroke="#888" stroke-width="1" opacity="1"/><line transform="translate(0,0)" x2="-5" y2="0" stroke="#888" stroke-width="1" opacity="1"/></g><g class="mark-text role-axis-label" pointer-events="none"><text text-anchor="end" transform="translate(-7,203)" font-family="sans-serif" font-size="10px" fill="#000" opacity="1">0</text><text text-anchor="end" transform="translate(-7,163)" font-family="sans-serif" font-size="10px" fill="#000" opacity="1">20</text><text text-anchor="end" transform="translate(-7,123)" font-family="sans-serif" font-size="10px" fill="#000" opacity="1">40</text><text text-anchor="end" transform="translate(-7,83)" font-family="sans-serif" font-size="10px" fill="#000" opacity="1">60</text><text text-anchor="end" transform="translate(-7,42.99999999999999)" font-family="sans-serif" font-size="10px" fill="#000" opacity="1">80</text><text text-anchor="end" transform="translate(-7,3)" font-family="sans-serif" font-size="10px" fill="#000" opacity="1">100</text></g><g class="mark-rule role-axis-domain" pointer-events="none"><line transform="translate(0,200)" x2="0" y2="-200" stroke="#888" stroke-width="1" opacity="1"/></g><g class="mark-text role-axis-title" pointer-events="none"><text text-anchor="middle" transform="translate(-27.6845703125,100) rotate(-90) translate(0,-2)" font-family="sans-serif" font-size="11px" font-weight="bold" fill="#000" opacity="1">usage</text></g></g><path class="foreground" aria-hidden="true" d="" pointer-events="none" display="none"/></g></g><g class="mark-rect role-mark marks" role="graphics-object" aria-roledescription="rect mark container"><path aria-label="name: Id; usage: 100" role="graphics-symbol" aria-roledescription="bar" d="M441,0h18v200h-18Z" fill="#4c78a8"/><path aria-label="name: MasterRecordId; usage: 0" role="graphics-symbol" aria-roledescription="bar" d="M621,200h18v0h-18Z" fill="#4c78a8"/><path aria-label="name: Name; usage: 100" role="graphics-symbol" aria-roledescription="bar" d="M681,0h18v200h-18Z" fill="#4c78a8"/><path aria-label="name: Type; usage: 99.8" role="graphics-symbol" aria-roledescription="bar" d="M1221,0.40000000000000036h18v199.6h-18Z" fill="#4c78a8"/><path aria-label="name: ParentId; usage: 0" role="graphics-symbol" aria-roledescription="bar" d="M781,200h18v0h-18Z" fill="#4c78a8"/><path aria-label="name: BillingStreet; usage: 0" role="graphics-symbol" aria-roledescription="bar" d="M221,200h18v0h-18Z" fill="#4c78a8"/><path aria-label="name: BillingCity; usage: 0" role="graphics-symbol" aria-roledescription="bar" d="M81,200h18v0h-18Z" fill="#4c78a8"/><path aria-label="name: BillingState; usage: 40.78" role="graphics-symbol" aria-roledescription="bar" d="M201,118.44000000000001h18v81.55999999999999h-18Z" fill="#4c78a8"/><path aria-label="name: BillingPostalCode; usage: 0" role="graphics-symbol" aria-roledescription="bar" d="M181,200h18v0h-18Z" fill="#4c78a8"/><path aria-label="name: BillingCountry; usage: 99.8" role="graphics-symbol" aria-roledescription="bar" d="M101,0.40000000000000036h18v199.6h-18Z" fill="#4c78a8"/><path aria-label="name: BillingLatitude; usage: 0" role="graphics-symbol" aria-roledescription="bar" d="M141,200h18v0h-18Z" fill="#4c78a8"/><path aria-label="name: BillingLongitude; usage: 0" role="graphics-symbol" aria-roledescription="bar" d="M161,200h18v0h-18Z" fill="#4c78a8"/><path aria-label="name: BillingGeocodeAccuracy; usage: 0" role="graphics-symbol" aria-roledescription="bar" d="M121,200h18v0h-18Z" fill="#4c78a8"/><path aria-label="name: ShippingStreet; usage: 0" role="graphics-symbol" aria-roledescription="bar" d="M1081,200h18v0h-18Z" fill="#4c78a8"/><path aria-label="name: ShippingCity; usage: 0" role="graphics-symbol" aria-roledescription="bar" d="M941,200h18v0h-18Z" fill="#4c78a8"/><path aria-label="name: ShippingState; usage: 0" role="graphics-symbol" aria-roledescription="bar" d="M1061,200h18v0h-18Z" fill="#4c78a8"/><path aria-label="name: ShippingPostalCode; usage: 0" role="graphics-symbol" aria-roledescription="bar" d="M1041,200h18v0h-18Z" fill="#4c78a8"/><path aria-label="name: ShippingCountry; usage: 0" role="graphics-symbol" aria-roledescription="bar" d="M961,200h18v0h-18Z" fill="#4c78a8"/><path aria-label="name: ShippingLatitude; usage: 0" role="graphics-symbol" aria-roledescription="bar" d="M1001,200h18v0h-18Z" fill="#4c78a8"/><path aria-label="name: ShippingLongitude; usage: 0" role="graphics-symbol" aria-roledescription="bar" d="M1021,200h18v0h-18Z" fill="#4c78a8"/><path aria-label="name: ShippingGeocodeAccuracy; usage: 0" role="graphics-symbol" aria-roledescription="bar" d="M981,200h18v0h-18Z" fill="#4c78a8"/><path aria-label="name: Phone; usage: 0.5" role="graphics-symbol" aria-roledescription="bar" d="M801,199h18v1h-18Z" fill="#4c78a8"/><path aria-label="name: Fax; usage: 0" role="graphics-symbol" aria-roledescription="bar" d="M421,200h18v0h-18Z" fill="#4c78a8"/><path aria-label="name: AccountNumber; usage: 0" role="graphics-symbol" aria-roledescription="bar" d="M1,200h18v0h-18Z" fill="#4c78a8"/><path aria-label="name: Website; usage: 0" role="graphics-symbol" aria-roledescription="bar" d="M1261,200h18v0h-18Z" fill="#4c78a8"/><path aria-label="name: PhotoUrl; usage: 100" role="graphics-symbol" aria-roledescription="bar" d="M821,0h18v200h-18Z" fill="#4c78a8"/><path aria-label="name: Sic; usage: 99.8" role="graphics-symbol" aria-roledescription="bar" d="M1101,0.40000000000000036h18v199.6h-18Z" fill="#4c78a8"/><path aria-label="name: Industry; usage: 99.8" role="graphics-symbol" aria-roledescription="bar" d="M461,0.40000000000000036h18v199.6h-18Z" fill="#4c78a8"/><path aria-label="name: AnnualRevenue; usage: 99.8" role="graphics-symbol" aria-roledescription="bar" d="M61,0.40000000000000036h18v199.6h-18Z" fill="#4c78a8"/><path aria-label="name: NumberOfEmployees; usage: 99.8" role="graphics-symbol" aria-roledescription="bar" d="M701,0.40000000000000036h18v199.6h-18Z" fill="#4c78a8"/><path aria-label="name: Ownership; usage: 0" role="graphics-symbol" aria-roledescription="bar" d="M761,200h18v0h-18Z" fill="#4c78a8"/><path aria-label="name: TickerSymbol; usage: 0" role="graphics-symbol" aria-roledescription="bar" d="M1181,200h18v0h-18Z" fill="#4c78a8"/><path aria-label="name: Rating; usage: 0" role="graphics-symbol" aria-roledescription="bar" d="M841,200h18v0h-18Z" fill="#4c78a8"/><path aria-label="name: Site; usage: 0" role="graphics-symbol" aria-roledescription="bar" d="M1141,200h18v0h-18Z" fill="#4c78a8"/><path aria-label="name: CurrencyIsoCode; usage: 100" role="graphics-symbol" aria-roledescription="bar" d="M341,0h18v200h-18Z" fill="#4c78a8"/><path aria-label="name: OwnerId; usage: 100" role="graphics-symbol" aria-roledescription="bar" d="M741,0h18v200h-18Z" fill="#4c78a8"/><path aria-label="name: CreatedDate; usage: 100" role="graphics-symbol" aria-roledescription="bar" d="M321,0h18v200h-18Z" fill="#4c78a8"/><path aria-label="name: CreatedById; usage: 100" role="graphics-symbol" aria-roledescription="bar" d="M301,0h18v200h-18Z" fill="#4c78a8"/><path aria-label="name: LastModifiedDate; usage: 100" role="graphics-symbol" aria-roledescription="bar" d="M561,0h18v200h-18Z" fill="#4c78a8"/><path aria-label="name: LastModifiedById; usage: 100" role="graphics-symbol" aria-roledescription="bar" d="M541,0h18v200h-18Z" fill="#4c78a8"/><path aria-label="name: SystemModstamp; usage: 100" role="graphics-symbol" aria-roledescription="bar" d="M1161,0h18v200h-18Z" fill="#4c78a8"/><path aria-label="name: LastActivityDate; usage: 21.73" role="graphics-symbol" aria-roledescription="bar" d="M521,156.54h18v43.46000000000001h-18Z" fill="#4c78a8"/><path aria-label="name: LastViewedDate; usage: 0" role="graphics-symbol" aria-roledescription="bar" d="M601,200h18v0h-18Z" fill="#4c78a8"/><path aria-label="name: LastReferencedDate; usage: 0" role="graphics-symbol" aria-roledescription="bar" d="M581,200h18v0h-18Z" fill="#4c78a8"/><path aria-label="name: ChannelProgramName; usage: 0" role="graphics-symbol" aria-roledescription="bar" d="M261,200h18v0h-18Z" fill="#4c78a8"/><path aria-label="name: ChannelProgramLevelName; usage: 0" role="graphics-symbol" aria-roledescription="bar" d="M241,200h18v0h-18Z" fill="#4c78a8"/><path aria-label="name: Jigsaw; usage: 0" role="graphics-symbol" aria-roledescription="bar" d="M481,200h18v0h-18Z" fill="#4c78a8"/><path aria-label="name: JigsawCompanyId; usage: 0" role="graphics-symbol" aria-roledescription="bar" d="M501,200h18v0h-18Z" fill="#4c78a8"/><path aria-label="name: CleanStatus; usage: 100" role="graphics-symbol" aria-roledescription="bar" d="M281,0h18v200h-18Z" fill="#4c78a8"/><path aria-label="name: AccountSource; usage: 99.6" role="graphics-symbol" aria-roledescription="bar" d="M21,0.8000000000000007h18v199.2h-18Z" fill="#4c78a8"/><path aria-label="name: DunsNumber; usage: 0" role="graphics-symbol" aria-roledescription="bar" d="M401,200h18v0h-18Z" fill="#4c78a8"/><path aria-label="name: Tradestyle; usage: 0" role="graphics-symbol" aria-roledescription="bar" d="M1201,200h18v0h-18Z" fill="#4c78a8"/><path aria-label="name: NaicsCode; usage: 0" role="graphics-symbol" aria-roledescription="bar" d="M641,200h18v0h-18Z" fill="#4c78a8"/><path aria-label="name: NaicsDesc; usage: 0" role="graphics-symbol" aria-roledescription="bar" d="M661,200h18v0h-18Z" fill="#4c78a8"/><path aria-label="name: YearStarted; usage: 0" role="graphics-symbol" aria-roledescription="bar" d="M1281,200h18v0h-18Z" fill="#4c78a8"/><path aria-label="name: SicDesc; usage: 0" role="graphics-symbol" aria-roledescription="bar" d="M1121,200h18v0h-18Z" fill="#4c78a8"/><path aria-label="name: DandbCompanyId; usage: 0" role="graphics-symbol" aria-roledescription="bar" d="M381,200h18v0h-18Z" fill="#4c78a8"/><path aria-label="name: CustomerPriority__c; usage: 0" role="graphics-symbol" aria-roledescription="bar" d="M361,200h18v0h-18Z" fill="#4c78a8"/><path aria-label="name: SLA__c; usage: 0" role="graphics-symbol" aria-roledescription="bar" d="M901,200h18v0h-18Z" fill="#4c78a8"/><path aria-label="name: Active__c; usage: 0" role="graphics-symbol" aria-roledescription="bar" d="M41,200h18v0h-18Z" fill="#4c78a8"/><path aria-label="name: NumberofLocations__c; usage: 0" role="graphics-symbol" aria-roledescription="bar" d="M721,200h18v0h-18Z" fill="#4c78a8"/><path aria-label="name: UpsellOpportunity__c; usage: 0" role="graphics-symbol" aria-roledescription="bar" d="M1241,200h18v0h-18Z" fill="#4c78a8"/><path aria-label="name: SLASerialNumber__c; usage: 0" role="graphics-symbol" aria-roledescription="bar" d="M881,200h18v0h-18Z" fill="#4c78a8"/><path aria-label="name: SLAExpirationDate__c; usage: 0" role="graphics-symbol" aria-roledescription="bar" d="M861,200h18v0h-18Z" fill="#4c78a8"/><path aria-label="name: Segment__c; usage: 99.8" role="graphics-symbol" aria-roledescription="bar" d="M921,0.40000000000000036h18v199.6h-18Z" fill="#4c78a8"/></g><g class="mark-group role-title"><g transform="translate(650,-22)"><path class="background" aria-hidden="true" d="M0,0h0v0h0Z" pointer-events="none"/><g><g class="mark-text role-title-text" role="graphics-symbol" aria-roledescription="title" aria-label="Title text 'Field Usage Percentage for Account '" pointer-events="none"><text text-anchor="middle" transform="translate(0,10)" font-family="sans-serif" font-size="13px" font-weight="bold" fill="#000" opacity="1">Field Usage Percentage for Account</text></g></g><path class="foreground" aria-hidden="true" d="" pointer-events="none" display="none"/></g></g></g><path class="foreground" aria-hidden="true" d="" display="none"/></g></g></g></svg>