<svg xmlns="http://www.w3.org/2000/svg" xmlns:xlink="http://www.w3.org/1999/xlink" version="1.1" class="marks" width="200" height="200" viewBox="0 0 200 200"><g fill="none" stroke-miterlimit="10" transform="translate(0,0)"><g class="mark-group role-frame root" role="graphics-object" aria-roledescription="group mark container"><g transform="translate(0,0)"><path class="background" aria-hidden="true" d="M0,0h200v200h-200Z"/><g><g class="mark-arc role-mark" role="graphics-symbol" aria-roledescription="arc mark container"><path transform="translate(100,100)" d="M6.123233995736766e-15,-100A100,100,0,0,1,61.477863357768115,-78.86997094562412L36.88671801466087,-47.32198256737448A60,60,0,0,0,3.67394039744206e-15,-60Z" fill="#1f77b4"/><path transform="translate(100,100)" d="M61.477863357768115,-78.86997094562412A100,100,0,0,1,99.64347976829289,8.436642677380803L59.78608786097574,5.061985606428482A60,60,0,0,0,36.88671801466087,-47.32198256737448Z" fill="#aec7e8"/><path transform="translate(100,100)" d="M99.64347976829289,8.436642677380803A100,100,0,0,1,-16.813128678718204,98.57646120668394L-10.087877207230921,59.145876724010364A60,60,0,0,0,59.78608786097574,5.061985606428482Z" fill="#ff7f0e"/><path transform="translate(100,100)" d="M-16.813128678718204,98.57646120668394A100,100,0,0,1,-61.746243271190636,78.66003713382638L-37.04774596271438,47.19602228029583A60,60,0,0,0,-10.087877207230921,59.145876724010364Z" fill="#ffbb78"/><path transform="translate(100,100)" d="M-61.746243271190636,78.66003713382638A100,100,0,0,1,-96.80655258926953,-25.069730269410446L-58.08393155356171,-15.041838161646266A60,60,0,0,0,-37.04774596271438,47.19602228029583Z" fill="#2ca02c"/><path transform="translate(100,100)" d="M-96.80655258926953,-25.069730269410446A100,100,0,0,1,0.6814640074771126,-99.99767800707431L0.4088784044862675,-59.99860680424459A60,60,0,0,0,-58.08393155356171,-15.041838161646266Z" fill="#98df8a"/></g></g><path class="foreground" aria-hidden="true" d="" display="none"/></g></g></g></svg>