<?xml version="1.0" encoding="UTF-8" standalone="no"?>
<!DOCTYPE svg PUBLIC "-//W3C//DTD SVG 1.1//EN"
 "http://www.w3.org/Graphics/SVG/1.1/DTD/svg11.dtd">
<!-- Generated by graphviz version 2.44.0 (20200518.1210)
 -->
<!-- Title: user Pages: 1 -->
<svg width="432pt" height="184pt"
 viewBox="0.00 0.00 432.00 183.97" xmlns="http://www.w3.org/2000/svg" xmlns:xlink="http://www.w3.org/1999/xlink">
<g id="graph0" class="graph" transform="scale(0.87 0.87) rotate(0) translate(4 206.8)">
<title>user</title>
<polygon fill="white" stroke="transparent" points="-4,4 -4,-206.8 491,-206.8 491,4 -4,4"/>
<text text-anchor="middle" x="243.5" y="-8.2" font-family="Times,serif" font-size="14.00">User Info</text>
<!-- User:Mohan Chinnappan -->
<g id="node1" class="node">
<title>User:Mohan Chinnappan</title>
<polygon fill="steelblue" stroke="steelblue" points="102.43,-166.3 102.43,-202.3 259.57,-202.3 259.57,-166.3 102.43,-166.3"/>
<text text-anchor="middle" x="181" y="-180.1" font-family="Times,serif" font-size="14.00" fill="white">User:Mohan Chinnappan</text>
</g>
<!-- profile -->
<g id="node2" class="node">
<title>profile</title>
<polygon fill="steelblue" stroke="steelblue" points="0,-25.3 0,-61.3 54,-61.3 54,-25.3 0,-25.3"/>
<text text-anchor="middle" x="26.66" y="-39.1" font-family="Times,serif" font-size="14.00" fill="white">profile</text>
</g>
<!-- User:Mohan Chinnappan&#45;&gt;profile -->
<g id="edge1" class="edge">
<title>User:Mohan Chinnappan&#45;&gt;profile</title>
<path fill="none" stroke="black" d="M102.33,-177.88C81.45,-172.73 60.66,-163.62 46,-147.8 27.13,-127.44 23.96,-94.79 24.51,-71.61"/>
<polygon fill="black" stroke="black" points="28.02,-71.55 25,-61.4 21.03,-71.22 28.02,-71.55"/>
<polygon fill="#ffeeff" stroke="transparent" points="46,-101.8 46,-125.8 177,-125.8 177,-101.8 46,-101.8"/>
<polygon fill="none" stroke="black" points="47.5,-102.8 47.5,-124.8 176.5,-124.8 176.5,-102.8 47.5,-102.8"/>
<text text-anchor="start" x="50.37" y="-109.2" font-family="Times,serif" font-size="14.00">System Administrator</text>
<polygon fill="none" stroke="black" points="46,-101.8 46,-125.8 177,-125.8 177,-101.8 46,-101.8"/>
</g>
<!-- role -->
<g id="node3" class="node">
<title>role</title>
<polygon fill="steelblue" stroke="steelblue" points="154,-25.3 154,-61.3 208,-61.3 208,-25.3 154,-25.3"/>
<text text-anchor="middle" x="180.88" y="-39.1" font-family="Times,serif" font-size="14.00" fill="white">role</text>
</g>
<!-- User:Mohan Chinnappan&#45;&gt;role -->
<g id="edge2" class="edge">
<title>User:Mohan Chinnappan&#45;&gt;role</title>
<path fill="none" stroke="black" d="M181,-166.26C181,-142.7 181,-99.94 181,-71.83"/>
<polygon fill="black" stroke="black" points="184.5,-71.48 181,-61.48 177.5,-71.48 184.5,-71.48"/>
<polygon fill="#ff99cc" stroke="transparent" points="181,-101.8 181,-125.8 216,-125.8 216,-101.8 181,-101.8"/>
<polygon fill="none" stroke="black" points="182.5,-102.8 182.5,-124.8 215.5,-124.8 215.5,-102.8 182.5,-102.8"/>
<text text-anchor="start" x="185" y="-109.2" font-family="Times,serif" font-size="14.00">CEO</text>
<polygon fill="none" stroke="black" points="181,-101.8 181,-125.8 216,-125.8 216,-101.8 181,-101.8"/>
</g>
<!-- perms -->
<g id="node4" class="node">
<title>perms</title>
<polygon fill="steelblue" stroke="steelblue" points="226,-25.3 226,-61.3 280,-61.3 280,-25.3 226,-25.3"/>
<text text-anchor="middle" x="252.61" y="-39.1" font-family="Times,serif" font-size="14.00" fill="white">perms</text>
</g>
<!-- User:Mohan Chinnappan&#45;&gt;perms -->
<g id="edge3" class="edge">
<title>User:Mohan Chinnappan&#45;&gt;perms</title>
<path fill="none" stroke="black" d="M203.72,-166.26C209.68,-160.9 215.65,-154.58 220,-147.8 235.06,-124.34 243.73,-93.46 248.37,-71.56"/>
<polygon fill="black" stroke="black" points="251.83,-72.09 250.33,-61.6 244.96,-70.73 251.83,-72.09"/>
<polygon fill="#cc99ff" stroke="transparent" points="246,-79.8 246,-147.8 487,-147.8 487,-79.8 246,-79.8"/>
<polygon fill="none" stroke="black" points="247.5,-124.8 247.5,-146.8 459.5,-146.8 459.5,-124.8 247.5,-124.8"/>
<text text-anchor="start" x="282.35" y="-131.2" font-family="Times,serif" font-size="14.00">PermissionsViewAllData</text>
<polygon fill="none" stroke="black" points="459.5,-124.8 459.5,-146.8 486.5,-146.8 486.5,-124.8 459.5,-124.8"/>
<text text-anchor="start" x="462.12" y="-131.2" font-family="Times,serif" font-size="14.00">true</text>
<polygon fill="none" stroke="black" points="247.5,-102.8 247.5,-124.8 459.5,-124.8 459.5,-102.8 247.5,-102.8"/>
<text text-anchor="start" x="276.51" y="-109.2" font-family="Times,serif" font-size="14.00">PermissionsModifyAllData</text>
<polygon fill="none" stroke="black" points="459.5,-102.8 459.5,-124.8 486.5,-124.8 486.5,-102.8 459.5,-102.8"/>
<text text-anchor="start" x="462.12" y="-109.2" font-family="Times,serif" font-size="14.00">true</text>
<polygon fill="none" stroke="black" points="247.5,-80.8 247.5,-102.8 459.5,-102.8 459.5,-80.8 247.5,-80.8"/>
<text text-anchor="start" x="250.48" y="-87.2" font-family="Times,serif" font-size="14.00">PermissionsManageDataIntegrations</text>
<polygon fill="none" stroke="black" points="459.5,-80.8 459.5,-102.8 486.5,-102.8 486.5,-80.8 459.5,-80.8"/>
<text text-anchor="start" x="462.12" y="-87.2" font-family="Times,serif" font-size="14.00">true</text>
<polygon fill="none" stroke="black" points="246,-79.8 246,-147.8 487,-147.8 487,-79.8 246,-79.8"/>
</g>
</g>
</svg>
