<?xml version="1.0" encoding="UTF-8" standalone="no"?>
<!DOCTYPE svg PUBLIC "-//W3C//DTD SVG 1.1//EN"
 "http://www.w3.org/Graphics/SVG/1.1/DTD/svg11.dtd">
<!-- Generated by graphviz version 2.44.0 (20200518.1210)
 -->
<!-- Title: user Pages: 1 -->
<svg width="2318pt" height="431pt"
 viewBox="0.00 0.00 2318.35 430.80" xmlns="http://www.w3.org/2000/svg" xmlns:xlink="http://www.w3.org/1999/xlink">
<g id="graph0" class="graph" transform="scale(1 1) rotate(0) translate(4 426.8)">
<title>user</title>
<polygon fill="white" stroke="transparent" points="-4,4 -4,-426.8 2314.35,-426.8 2314.35,4 -4,4"/>
<text text-anchor="middle" x="1155.18" y="-8.2" font-family="Times,serif" font-size="14.00">User Info for the given user: Mohan Chinnappan</text>
<!-- User:Mohan Chinnappan -->
<g id="node1" class="node">
<title>User:Mohan Chinnappan</title>
<polygon fill="steelblue" stroke="steelblue" points="1162.78,-386.3 1162.78,-422.3 1319.92,-422.3 1319.92,-386.3 1162.78,-386.3"/>
<text text-anchor="middle" x="1241.35" y="-400.1" font-family="Times,serif" font-size="14.00" fill="white">User:Mohan Chinnappan</text>
</g>
<!-- data -->
<g id="node2" class="node">
<title>data</title>
<polygon fill="steelblue" stroke="steelblue" points="19.35,-25.3 19.35,-61.3 73.35,-61.3 73.35,-25.3 19.35,-25.3"/>
<text text-anchor="middle" x="46.01" y="-39.1" font-family="Times,serif" font-size="14.00" fill="white">data</text>
</g>
<!-- User:Mohan Chinnappan&#45;&gt;data -->
<g id="edge1" class="edge">
<title>User:Mohan Chinnappan&#45;&gt;data</title>
<path fill="none" stroke="black" d="M1162.42,-402.42C898.74,-399.31 63.86,-387.89 44.35,-367.8 -34.58,-286.49 12.15,-132.4 35.49,-70.76"/>
<polygon fill="black" stroke="black" points="38.79,-71.94 39.15,-61.35 32.26,-69.4 38.79,-71.94"/>
<polygon fill="#ffcc99" stroke="transparent" points="44.35,-178.8 44.35,-268.8 643.35,-268.8 643.35,-178.8 44.35,-178.8"/>
<polygon fill="none" stroke="black" points="45.85,-245.8 45.85,-267.8 132.85,-267.8 132.85,-245.8 45.85,-245.8"/>
<text text-anchor="start" x="71.86" y="-252.2" font-family="Times,serif" font-size="14.00">userId</text>
<polygon fill="none" stroke="black" points="132.85,-245.8 132.85,-267.8 642.85,-267.8 642.85,-245.8 132.85,-245.8"/>
<text text-anchor="start" x="320.19" y="-252.2" font-family="Times,serif" font-size="14.00">0053h000002xQ5sAAE</text>
<polygon fill="none" stroke="black" points="45.85,-223.8 45.85,-245.8 132.85,-245.8 132.85,-223.8 45.85,-223.8"/>
<text text-anchor="start" x="74.19" y="-230.2" font-family="Times,serif" font-size="14.00">name</text>
<polygon fill="none" stroke="black" points="132.85,-223.8 132.85,-245.8 642.85,-245.8 642.85,-223.8 132.85,-223.8"/>
<text text-anchor="start" x="332.44" y="-230.2" font-family="Times,serif" font-size="14.00">Mohan Chinnappan</text>
<polygon fill="none" stroke="black" points="45.85,-201.8 45.85,-223.8 132.85,-223.8 132.85,-201.8 45.85,-201.8"/>
<text text-anchor="start" x="48.52" y="-208.2" font-family="Times,serif" font-size="14.00">smallPhotoUrl</text>
<polygon fill="none" stroke="black" points="132.85,-201.8 132.85,-223.8 642.85,-223.8 642.85,-201.8 132.85,-201.8"/>
<text text-anchor="start" x="135.53" y="-208.2" font-family="Times,serif" font-size="14.00">https://mohansun&#45;ea&#45;02&#45;dev&#45;ed&#45;&#45;c.documentforce.com/profilephoto/7293h000000DuZq/T</text>
<polygon fill="none" stroke="black" points="45.85,-179.8 45.85,-201.8 132.85,-201.8 132.85,-179.8 45.85,-179.8"/>
<text text-anchor="start" x="53.96" y="-186.2" font-family="Times,serif" font-size="14.00">fullPhotoUrl</text>
<polygon fill="none" stroke="black" points="132.85,-179.8 132.85,-201.8 642.85,-201.8 642.85,-179.8 132.85,-179.8"/>
<text text-anchor="start" x="135.92" y="-186.2" font-family="Times,serif" font-size="14.00">https://mohansun&#45;ea&#45;02&#45;dev&#45;ed&#45;&#45;c.documentforce.com/profilephoto/7293h000000DuZq/F</text>
<polygon fill="none" stroke="black" points="44.35,-178.8 44.35,-268.8 643.35,-268.8 643.35,-178.8 44.35,-178.8"/>
</g>
<!-- role -->
<g id="node3" class="node">
<title>role</title>
<polygon fill="steelblue" stroke="steelblue" points="641.35,-25.3 641.35,-61.3 695.35,-61.3 695.35,-25.3 641.35,-25.3"/>
<text text-anchor="middle" x="668.23" y="-39.1" font-family="Times,serif" font-size="14.00" fill="white">role</text>
</g>
<!-- User:Mohan Chinnappan&#45;&gt;role -->
<g id="edge2" class="edge">
<title>User:Mohan Chinnappan&#45;&gt;role</title>
<path fill="none" stroke="black" d="M1162.68,-401.25C1009.57,-396.86 685.01,-385.52 668.35,-367.8 628.73,-325.65 652.87,-141.9 663.81,-71.7"/>
<polygon fill="black" stroke="black" points="667.33,-71.87 665.45,-61.44 660.42,-70.77 667.33,-71.87"/>
<polygon fill="#ffeeff" stroke="transparent" points="668.35,-79.8 668.35,-367.8 1028.35,-367.8 1028.35,-79.8 668.35,-79.8"/>
<polygon fill="none" stroke="black" points="669.35,-344.8 669.35,-366.8 888.35,-366.8 888.35,-344.8 669.35,-344.8"/>
<text text-anchor="start" x="773.02" y="-351.2" font-family="Times,serif" font-size="14.00">Id</text>
<polygon fill="none" stroke="black" points="888.35,-344.8 888.35,-366.8 1027.35,-366.8 1027.35,-344.8 888.35,-344.8"/>
<text text-anchor="start" x="890.97" y="-351.2" font-family="Times,serif" font-size="14.00">00E3h000001JaqUEAS</text>
<polygon fill="none" stroke="black" points="669.35,-322.8 669.35,-344.8 888.35,-344.8 888.35,-322.8 669.35,-322.8"/>
<text text-anchor="start" x="762.14" y="-329.2" font-family="Times,serif" font-size="14.00">Name</text>
<polygon fill="none" stroke="black" points="888.35,-322.8 888.35,-344.8 1027.35,-344.8 1027.35,-322.8 888.35,-322.8"/>
<text text-anchor="start" x="943.85" y="-329.2" font-family="Times,serif" font-size="14.00">CEO</text>
<polygon fill="none" stroke="black" points="669.35,-300.8 669.35,-322.8 888.35,-322.8 888.35,-300.8 669.35,-300.8"/>
<text text-anchor="start" x="741.92" y="-307.2" font-family="Times,serif" font-size="14.00">ParentRoleId</text>
<polygon fill="none" stroke="black" points="888.35,-300.8 888.35,-322.8 1027.35,-322.8 1027.35,-300.8 888.35,-300.8"/>
<text text-anchor="start" x="946.96" y="-307.2" font-family="Times,serif" font-size="14.00">null</text>
<polygon fill="none" stroke="black" points="669.35,-278.8 669.35,-300.8 888.35,-300.8 888.35,-278.8 669.35,-278.8"/>
<text text-anchor="start" x="727.14" y="-285.2" font-family="Times,serif" font-size="14.00">RollupDescription</text>
<polygon fill="none" stroke="black" points="888.35,-278.8 888.35,-300.8 1027.35,-300.8 1027.35,-278.8 888.35,-278.8"/>
<text text-anchor="start" x="943.85" y="-285.2" font-family="Times,serif" font-size="14.00">CEO</text>
<polygon fill="none" stroke="black" points="669.35,-256.8 669.35,-278.8 888.35,-278.8 888.35,-256.8 669.35,-256.8"/>
<text text-anchor="start" x="672.33" y="-263.2" font-family="Times,serif" font-size="14.00">OpportunityAccessForAccountOwner</text>
<polygon fill="none" stroke="black" points="888.35,-256.8 888.35,-278.8 1027.35,-278.8 1027.35,-256.8 888.35,-256.8"/>
<text text-anchor="start" x="946.18" y="-263.2" font-family="Times,serif" font-size="14.00">Edit</text>
<polygon fill="none" stroke="black" points="669.35,-234.8 669.35,-256.8 888.35,-256.8 888.35,-234.8 669.35,-234.8"/>
<text text-anchor="start" x="692.95" y="-241.2" font-family="Times,serif" font-size="14.00">CaseAccessForAccountOwner</text>
<polygon fill="none" stroke="black" points="888.35,-234.8 888.35,-256.8 1027.35,-256.8 1027.35,-234.8 888.35,-234.8"/>
<text text-anchor="start" x="946.18" y="-241.2" font-family="Times,serif" font-size="14.00">Edit</text>
<polygon fill="none" stroke="black" points="669.35,-212.8 669.35,-234.8 888.35,-234.8 888.35,-212.8 669.35,-212.8"/>
<text text-anchor="start" x="684.78" y="-219.2" font-family="Times,serif" font-size="14.00">ContactAccessForAccountOwner</text>
<polygon fill="none" stroke="black" points="888.35,-212.8 888.35,-234.8 1027.35,-234.8 1027.35,-212.8 888.35,-212.8"/>
<text text-anchor="start" x="946.18" y="-219.2" font-family="Times,serif" font-size="14.00">Edit</text>
<polygon fill="none" stroke="black" points="669.35,-190.8 669.35,-212.8 888.35,-212.8 888.35,-190.8 669.35,-190.8"/>
<text text-anchor="start" x="736.1" y="-197.2" font-family="Times,serif" font-size="14.00">ForecastUserId</text>
<polygon fill="none" stroke="black" points="888.35,-190.8 888.35,-212.8 1027.35,-212.8 1027.35,-190.8 888.35,-190.8"/>
<text text-anchor="start" x="946.96" y="-197.2" font-family="Times,serif" font-size="14.00">null</text>
<polygon fill="none" stroke="black" points="669.35,-168.8 669.35,-190.8 888.35,-190.8 888.35,-168.8 669.35,-168.8"/>
<text text-anchor="start" x="701.5" y="-175.2" font-family="Times,serif" font-size="14.00">MayForecastManagerShare</text>
<polygon fill="none" stroke="black" points="888.35,-168.8 888.35,-190.8 1027.35,-190.8 1027.35,-168.8 888.35,-168.8"/>
<text text-anchor="start" x="944.64" y="-175.2" font-family="Times,serif" font-size="14.00">false</text>
<polygon fill="none" stroke="black" points="669.35,-146.8 669.35,-168.8 888.35,-168.8 888.35,-146.8 669.35,-146.8"/>
<text text-anchor="start" x="732.99" y="-153.2" font-family="Times,serif" font-size="14.00">DeveloperName</text>
<polygon fill="none" stroke="black" points="888.35,-146.8 888.35,-168.8 1027.35,-168.8 1027.35,-146.8 888.35,-146.8"/>
<text text-anchor="start" x="943.85" y="-153.2" font-family="Times,serif" font-size="14.00">CEO</text>
<polygon fill="none" stroke="black" points="669.35,-124.8 669.35,-146.8 888.35,-146.8 888.35,-124.8 669.35,-124.8"/>
<text text-anchor="start" x="732.59" y="-131.2" font-family="Times,serif" font-size="14.00">PortalAccountId</text>
<polygon fill="none" stroke="black" points="888.35,-124.8 888.35,-146.8 1027.35,-146.8 1027.35,-124.8 888.35,-124.8"/>
<text text-anchor="start" x="946.96" y="-131.2" font-family="Times,serif" font-size="14.00">null</text>
<polygon fill="none" stroke="black" points="669.35,-102.8 669.35,-124.8 888.35,-124.8 888.35,-102.8 669.35,-102.8"/>
<text text-anchor="start" x="747.75" y="-109.2" font-family="Times,serif" font-size="14.00">PortalType</text>
<polygon fill="none" stroke="black" points="888.35,-102.8 888.35,-124.8 1027.35,-124.8 1027.35,-102.8 888.35,-102.8"/>
<text text-anchor="start" x="942.69" y="-109.2" font-family="Times,serif" font-size="14.00">None</text>
<polygon fill="none" stroke="black" points="669.35,-80.8 669.35,-102.8 888.35,-102.8 888.35,-80.8 669.35,-80.8"/>
<text text-anchor="start" x="713.54" y="-87.2" font-family="Times,serif" font-size="14.00">PortalAccountOwnerId</text>
<polygon fill="none" stroke="black" points="888.35,-80.8 888.35,-102.8 1027.35,-102.8 1027.35,-80.8 888.35,-80.8"/>
<text text-anchor="start" x="946.96" y="-87.2" font-family="Times,serif" font-size="14.00">null</text>
<polygon fill="none" stroke="black" points="668.35,-79.8 668.35,-367.8 1028.35,-367.8 1028.35,-79.8 668.35,-79.8"/>
</g>
<!-- perms -->
<g id="node4" class="node">
<title>perms</title>
<polygon fill="steelblue" stroke="steelblue" points="1024.35,-25.3 1024.35,-61.3 1078.35,-61.3 1078.35,-25.3 1024.35,-25.3"/>
<text text-anchor="middle" x="1050.96" y="-39.1" font-family="Times,serif" font-size="14.00" fill="white">perms</text>
</g>
<!-- User:Mohan Chinnappan&#45;&gt;perms -->
<g id="edge3" class="edge">
<title>User:Mohan Chinnappan&#45;&gt;perms</title>
<path fill="none" stroke="black" d="M1162.73,-398.46C1117.39,-393.85 1066.61,-384.93 1052.35,-367.8 1015.43,-323.44 1037.14,-141.83 1047.14,-71.92"/>
<polygon fill="black" stroke="black" points="1050.65,-72.09 1048.64,-61.69 1043.73,-71.08 1050.65,-72.09"/>
<polygon fill="#99ccff" stroke="transparent" points="1052.35,-167.8 1052.35,-279.8 1410.35,-279.8 1410.35,-167.8 1052.35,-167.8"/>
<polygon fill="none" stroke="black" points="1053.35,-256.8 1053.35,-278.8 1265.35,-278.8 1265.35,-256.8 1053.35,-256.8"/>
<text text-anchor="start" x="1153.52" y="-263.2" font-family="Times,serif" font-size="14.00">Id</text>
<polygon fill="none" stroke="black" points="1265.35,-256.8 1265.35,-278.8 1409.35,-278.8 1409.35,-256.8 1265.35,-256.8"/>
<text text-anchor="start" x="1268.14" y="-263.2" font-family="Times,serif" font-size="14.00">00e3h000001kqJMAAY</text>
<polygon fill="none" stroke="black" points="1053.35,-234.8 1053.35,-256.8 1265.35,-256.8 1265.35,-234.8 1053.35,-234.8"/>
<text text-anchor="start" x="1142.64" y="-241.2" font-family="Times,serif" font-size="14.00">Name</text>
<polygon fill="none" stroke="black" points="1265.35,-234.8 1265.35,-256.8 1409.35,-256.8 1409.35,-234.8 1265.35,-234.8"/>
<text text-anchor="start" x="1275.72" y="-241.2" font-family="Times,serif" font-size="14.00">System Administrator</text>
<polygon fill="none" stroke="black" points="1053.35,-212.8 1053.35,-234.8 1265.35,-234.8 1265.35,-212.8 1053.35,-212.8"/>
<text text-anchor="start" x="1088.2" y="-219.2" font-family="Times,serif" font-size="14.00">PermissionsViewAllData</text>
<polygon fill="none" stroke="black" points="1265.35,-212.8 1265.35,-234.8 1409.35,-234.8 1409.35,-212.8 1265.35,-212.8"/>
<text text-anchor="start" x="1326.47" y="-219.2" font-family="Times,serif" font-size="14.00">true</text>
<polygon fill="none" stroke="black" points="1053.35,-190.8 1053.35,-212.8 1265.35,-212.8 1265.35,-190.8 1053.35,-190.8"/>
<text text-anchor="start" x="1082.36" y="-197.2" font-family="Times,serif" font-size="14.00">PermissionsModifyAllData</text>
<polygon fill="none" stroke="black" points="1265.35,-190.8 1265.35,-212.8 1409.35,-212.8 1409.35,-190.8 1265.35,-190.8"/>
<text text-anchor="start" x="1326.47" y="-197.2" font-family="Times,serif" font-size="14.00">true</text>
<polygon fill="none" stroke="black" points="1053.35,-168.8 1053.35,-190.8 1265.35,-190.8 1265.35,-168.8 1053.35,-168.8"/>
<text text-anchor="start" x="1056.33" y="-175.2" font-family="Times,serif" font-size="14.00">PermissionsManageDataIntegrations</text>
<polygon fill="none" stroke="black" points="1265.35,-168.8 1265.35,-190.8 1409.35,-190.8 1409.35,-168.8 1265.35,-168.8"/>
<text text-anchor="start" x="1326.47" y="-175.2" font-family="Times,serif" font-size="14.00">true</text>
<polygon fill="none" stroke="black" points="1052.35,-167.8 1052.35,-279.8 1410.35,-279.8 1410.35,-167.8 1052.35,-167.8"/>
</g>
<!-- permsets -->
<g id="node5" class="node">
<title>permsets</title>
<polygon fill="steelblue" stroke="steelblue" points="1399.47,-25.3 1399.47,-61.3 1465.23,-61.3 1465.23,-25.3 1399.47,-25.3"/>
<text text-anchor="middle" x="1432.35" y="-39.1" font-family="Times,serif" font-size="14.00" fill="white">permsets</text>
</g>
<!-- User:Mohan Chinnappan&#45;&gt;permsets -->
<g id="edge4" class="edge">
<title>User:Mohan Chinnappan&#45;&gt;permsets</title>
<path fill="none" stroke="black" d="M1320.08,-395.91C1358.12,-390.59 1398.15,-381.83 1410.35,-367.8 1429.54,-345.73 1432.07,-146.28 1432.35,-72.01"/>
<polygon fill="black" stroke="black" points="1435.85,-71.61 1432.37,-61.6 1428.85,-71.59 1435.85,-71.61"/>
<polygon fill="#ffeeff" stroke="transparent" points="1432.35,-167.8 1432.35,-279.8 1860.35,-279.8 1860.35,-167.8 1432.35,-167.8"/>
<polygon fill="none" stroke="black" points="1433.35,-256.8 1433.35,-278.8 1645.35,-278.8 1645.35,-256.8 1433.35,-256.8"/>
<text text-anchor="start" x="1533.52" y="-263.2" font-family="Times,serif" font-size="14.00">Id</text>
<polygon fill="none" stroke="black" points="1645.35,-256.8 1645.35,-278.8 1859.35,-278.8 1859.35,-256.8 1645.35,-256.8"/>
<text text-anchor="start" x="1681.19" y="-263.2" font-family="Times,serif" font-size="14.00">0PS3h000002PwNZGA0</text>
<polygon fill="none" stroke="black" points="1433.35,-234.8 1433.35,-256.8 1645.35,-256.8 1645.35,-234.8 1433.35,-234.8"/>
<text text-anchor="start" x="1523.41" y="-241.2" font-family="Times,serif" font-size="14.00">Label</text>
<polygon fill="none" stroke="black" points="1645.35,-234.8 1645.35,-256.8 1859.35,-256.8 1859.35,-234.8 1645.35,-234.8"/>
<text text-anchor="start" x="1648.14" y="-241.2" font-family="Times,serif" font-size="14.00">00ex00000018ozh_128_09_04_12_1</text>
<polygon fill="none" stroke="black" points="1433.35,-212.8 1433.35,-234.8 1645.35,-234.8 1645.35,-212.8 1433.35,-212.8"/>
<text text-anchor="start" x="1468.2" y="-219.2" font-family="Times,serif" font-size="14.00">PermissionsViewAllData</text>
<polygon fill="none" stroke="black" points="1645.35,-212.8 1645.35,-234.8 1859.35,-234.8 1859.35,-212.8 1645.35,-212.8"/>
<text text-anchor="start" x="1741.47" y="-219.2" font-family="Times,serif" font-size="14.00">true</text>
<polygon fill="none" stroke="black" points="1433.35,-190.8 1433.35,-212.8 1645.35,-212.8 1645.35,-190.8 1433.35,-190.8"/>
<text text-anchor="start" x="1462.36" y="-197.2" font-family="Times,serif" font-size="14.00">PermissionsModifyAllData</text>
<polygon fill="none" stroke="black" points="1645.35,-190.8 1645.35,-212.8 1859.35,-212.8 1859.35,-190.8 1645.35,-190.8"/>
<text text-anchor="start" x="1741.47" y="-197.2" font-family="Times,serif" font-size="14.00">true</text>
<polygon fill="none" stroke="black" points="1433.35,-168.8 1433.35,-190.8 1645.35,-190.8 1645.35,-168.8 1433.35,-168.8"/>
<text text-anchor="start" x="1436.33" y="-175.2" font-family="Times,serif" font-size="14.00">PermissionsManageDataIntegrations</text>
<polygon fill="none" stroke="black" points="1645.35,-168.8 1645.35,-190.8 1859.35,-190.8 1859.35,-168.8 1645.35,-168.8"/>
<text text-anchor="start" x="1741.47" y="-175.2" font-family="Times,serif" font-size="14.00">true</text>
<polygon fill="none" stroke="black" points="1432.35,-167.8 1432.35,-279.8 1860.35,-279.8 1860.35,-167.8 1432.35,-167.8"/>
</g>
<!-- accountTeam -->
<g id="node6" class="node">
<title>accountTeam</title>
<polygon fill="steelblue" stroke="steelblue" points="1837.65,-25.3 1837.65,-61.3 1929.05,-61.3 1929.05,-25.3 1837.65,-25.3"/>
<text text-anchor="middle" x="1883.35" y="-39.1" font-family="Times,serif" font-size="14.00" fill="white">accountTeam</text>
</g>
<!-- User:Mohan Chinnappan&#45;&gt;accountTeam -->
<g id="edge5" class="edge">
<title>User:Mohan Chinnappan&#45;&gt;accountTeam</title>
<path fill="none" stroke="black" d="M1320.1,-401.53C1482.78,-397.51 1842.41,-386.54 1861.35,-367.8 1882.19,-347.19 1883.68,-146.02 1883.51,-71.71"/>
<polygon fill="black" stroke="black" points="1887.01,-71.69 1883.48,-61.7 1880.01,-71.71 1887.01,-71.69"/>
<polygon fill="#ffeeff" stroke="transparent" points="1883.35,-211.8 1883.35,-235.8 1957.35,-235.8 1957.35,-211.8 1883.35,-211.8"/>
<polygon fill="none" stroke="black" points="1884.35,-212.8 1884.35,-234.8 1956.35,-234.8 1956.35,-212.8 1884.35,-212.8"/>
<text text-anchor="start" x="1887.11" y="-219.2" font-family="Times,serif" font-size="14.00">None found</text>
<polygon fill="none" stroke="black" points="1883.35,-211.8 1883.35,-235.8 1957.35,-235.8 1957.35,-211.8 1883.35,-211.8"/>
</g>
<!-- opptyTeam -->
<g id="node7" class="node">
<title>opptyTeam</title>
<polygon fill="steelblue" stroke="steelblue" points="1947.47,-25.3 1947.47,-61.3 2027.23,-61.3 2027.23,-25.3 1947.47,-25.3"/>
<text text-anchor="middle" x="1987.35" y="-39.1" font-family="Times,serif" font-size="14.00" fill="white">opptyTeam</text>
</g>
<!-- User:Mohan Chinnappan&#45;&gt;opptyTeam -->
<g id="edge6" class="edge">
<title>User:Mohan Chinnappan&#45;&gt;opptyTeam</title>
<path fill="none" stroke="black" d="M1320.24,-402.17C1502.42,-399.21 1938.63,-389.82 1961.35,-367.8 2042.8,-288.83 2012.21,-133.96 1995.44,-71.44"/>
<polygon fill="black" stroke="black" points="1998.74,-70.24 1992.69,-61.54 1991.99,-72.12 1998.74,-70.24"/>
<polygon fill="#ffeeff" stroke="transparent" points="2014.35,-156.8 2014.35,-290.8 2310.35,-290.8 2310.35,-156.8 2014.35,-156.8"/>
<polygon fill="none" stroke="black" points="2015.35,-267.8 2015.35,-289.8 2160.35,-289.8 2160.35,-267.8 2015.35,-267.8"/>
<text text-anchor="start" x="2082.02" y="-274.2" font-family="Times,serif" font-size="14.00">Id</text>
<polygon fill="none" stroke="black" points="2160.35,-267.8 2160.35,-289.8 2309.35,-289.8 2309.35,-267.8 2160.35,-267.8"/>
<text text-anchor="start" x="2162.91" y="-274.2" font-family="Times,serif" font-size="14.00">00q3h000000FMRdAAO</text>
<polygon fill="none" stroke="black" points="2015.35,-245.8 2015.35,-267.8 2160.35,-267.8 2160.35,-245.8 2015.35,-245.8"/>
<text text-anchor="start" x="2071.14" y="-252.2" font-family="Times,serif" font-size="14.00">Name</text>
<polygon fill="none" stroke="black" points="2160.35,-245.8 2160.35,-267.8 2309.35,-267.8 2309.35,-245.8 2160.35,-245.8"/>
<text text-anchor="start" x="2179.44" y="-252.2" font-family="Times,serif" font-size="14.00">Mohan Chinnappan</text>
<polygon fill="none" stroke="black" points="2015.35,-223.8 2015.35,-245.8 2160.35,-245.8 2160.35,-223.8 2015.35,-223.8"/>
<text text-anchor="start" x="2017.88" y="-230.2" font-family="Times,serif" font-size="14.00">OpportunityAccessLevel</text>
<polygon fill="none" stroke="black" points="2160.35,-223.8 2160.35,-245.8 2309.35,-245.8 2309.35,-223.8 2160.35,-223.8"/>
<text text-anchor="start" x="2220.47" y="-230.2" font-family="Times,serif" font-size="14.00">Read</text>
<polygon fill="none" stroke="black" points="2015.35,-201.8 2015.35,-223.8 2160.35,-223.8 2160.35,-201.8 2015.35,-201.8"/>
<text text-anchor="start" x="2047.8" y="-208.2" font-family="Times,serif" font-size="14.00">OpportunityId</text>
<polygon fill="none" stroke="black" points="2160.35,-201.8 2160.35,-223.8 2309.35,-223.8 2309.35,-201.8 2160.35,-201.8"/>
<text text-anchor="start" x="2165.64" y="-208.2" font-family="Times,serif" font-size="14.00">0063h000008wq3kAAA</text>
<polygon fill="none" stroke="black" points="2015.35,-179.8 2015.35,-201.8 2160.35,-201.8 2160.35,-179.8 2015.35,-179.8"/>
<text text-anchor="start" x="2034.98" y="-186.2" font-family="Times,serif" font-size="14.00">TeamMemberRole</text>
<polygon fill="none" stroke="black" points="2160.35,-179.8 2160.35,-201.8 2309.35,-201.8 2309.35,-179.8 2160.35,-179.8"/>
<text text-anchor="start" x="2184.51" y="-186.2" font-family="Times,serif" font-size="14.00">Account Manager</text>
<polygon fill="none" stroke="black" points="2015.35,-157.8 2015.35,-179.8 2160.35,-179.8 2160.35,-157.8 2015.35,-157.8"/>
<text text-anchor="start" x="2074.63" y="-164.2" font-family="Times,serif" font-size="14.00">Title</text>
<polygon fill="none" stroke="black" points="2160.35,-157.8 2160.35,-179.8 2309.35,-179.8 2309.35,-157.8 2160.35,-157.8"/>
<text text-anchor="start" x="2223.96" y="-164.2" font-family="Times,serif" font-size="14.00">null</text>
<polygon fill="none" stroke="black" points="2014.35,-156.8 2014.35,-290.8 2310.35,-290.8 2310.35,-156.8 2014.35,-156.8"/>
</g>
</g>
</svg>
